<?xml version="1.0" standalone="no"?>
<!DOCTYPE svg PUBLIC "-//W3C//DTD SVG 1.1//EN" "http://www.w3.org/Graphics/SVG/1.1/DTD/svg11.dtd" >
<svg xmlns="http://www.w3.org/2000/svg">
<metadata>Generated by IcoMoon</metadata>
<defs>
<font id="rum-icomoon" horiz-adv-x="1024">
<font-face units-per-em="1024" ascent="960" descent="-64" />
<missing-glyph horiz-adv-x="1024" />
<glyph unicode="&#x20;" horiz-adv-x="512" d="" />
<glyph unicode="&#xe5d2;" glyph-name="menu" d="M3.283 767.999h1023.999v-114.668h-1023.999v114.668zM3.283 370.667v112h1023.999v-112h-1023.999zM3.283 85.335v114.668h1023.999v-114.668h-1023.999z" />
<glyph unicode="&#xe900;" glyph-name="home" d="M1024 369.556l-512 397.426-512-397.428v162.038l512 397.426 512-397.428zM896 384v-384h-256v256h-256v-256h-256v384l384 288z" />
<glyph unicode="&#xe901;" glyph-name="apply" horiz-adv-x="762" d="M47.62 960c-0.030 0-0.065 0-0.1 0-26.245 0-47.52-21.275-47.52-47.52 0-0.035 0-0.070 0-0.106v-928.755c0-0.030 0-0.065 0-0.1 0-26.245 21.275-47.52 47.52-47.52 0.035 0 0.070 0 0.106 0h666.795c0.018 0 0.039 0 0.060 0 26.245 0 47.52 21.275 47.52 47.52 0 0.035 0 0.070 0 0.105v928.755c0 0.030 0 0.065 0 0.1 0 26.245-21.275 47.52-47.52 47.52-0.021 0-0.042 0-0.063 0zM381.020 805.2c46.027 0 83.34-37.313 83.34-83.34s-37.313-83.34-83.34-83.34c-46.027 0-83.34 37.313-83.34 83.34 0.215 45.941 37.399 83.125 83.319 83.34zM381.020 757.58c-19.728 0-35.72-15.992-35.72-35.72s15.992-35.72 35.72-35.72c19.728 0 35.72 15.992 35.72 35.72 0.001 0.108 0.002 0.235 0.002 0.362 0 19.529-15.831 35.36-35.36 35.36-0.127 0-0.254-0.001-0.381-0.002zM381.020 614.7c41.556-0.215 80.327-11.948 113.339-32.166 35.041-21.714 65.281-59.974 65.281-110.714 0-13.155-10.665-23.82-23.82-23.82h-309.58c-13.155 0-23.82 10.665-23.82 23.82 0 50.74 30.28 89 66.24 111.26 32.047 19.669 70.811 31.402 112.3 31.62zM381.020 567.080c-25 0-60.5-8.12-87.060-24.56-19.54-12.1-34.26-26.9-40.56-46.88h255.26c-6.3 20-21.020 34.78-40.56 46.88-26.58 16.44-62.1 24.54-87.080 24.54zM142.88 376.56h476.28c0.206 0.006 0.447 0.010 0.69 0.010 13.155 0 23.82-10.665 23.82-23.82s-10.665-23.82-23.82-23.82c-0.243 0-0.485 0.004-0.725 0.011l-476.245-0.001c-12.855 0.384-23.13 10.897-23.13 23.81s10.275 23.426 23.095 23.809zM142.88 257.5h476.28c0.206 0.006 0.447 0.010 0.69 0.010 13.155 0 23.82-10.665 23.82-23.82s-10.665-23.82-23.82-23.82c-0.243 0-0.485 0.004-0.725 0.011l-476.245-0.001c-0.206-0.006-0.447-0.010-0.69-0.010-13.155 0-23.82 10.665-23.82 23.82s10.665 23.82 23.82 23.82c0.243 0 0.485-0.004 0.725-0.011zM142.88 138.44h476.28c0.206 0.006 0.447 0.010 0.69 0.010 13.155 0 23.82-10.665 23.82-23.82s-10.665-23.82-23.82-23.82c-0.243 0-0.485 0.004-0.725 0.011l-476.245-0.001c-12.855 0.384-23.13 10.897-23.13 23.81s10.275 23.426 23.095 23.809z" />
<glyph unicode="&#xe902;" glyph-name="arrow" d="M1024 448.44l-454.76 262.56v-218.8h-569.24v-60.18h569.24v-246.12l454.76 262.54z" />
<glyph unicode="&#xe903;" glyph-name="book" d="M928.1 122.62v698.94c-131.66 62.56-263.32 48.76-394.98 21.12v-698.92c131.66 27.64 263.32 41.44 394.98-21.14zM607.080 749.22c74 16.26 162.54 27.64 250.32-8.12 7.607-3.168 12.858-10.543 12.858-19.143 0-2.765-0.543-5.404-1.527-7.815-2.866-7.509-10.133-12.847-18.648-12.862-2.676 0.162-5.169 0.743-7.481 1.677-77.041 30.823-154.241 21.043-226.601 5.623-1.304-0.294-2.802-0.463-4.339-0.463-9.696 0-17.824 6.712-19.993 15.743-2.468 12.36 4.032 22.92 15.412 25.36zM607.080 629.76c74 16.26 162.54 27.64 250.32-8.12 7.607-3.168 12.858-10.543 12.858-19.143 0-2.765-0.543-5.404-1.527-7.815-2.866-7.509-10.133-12.847-18.648-12.862-2.676 0.162-5.169 0.743-7.481 1.677-77.041 30.823-154.261 21.063-226.581 5.623-1.309-0.296-2.811-0.466-4.354-0.466-9.704 0-17.839 6.723-19.998 15.766-2.468 11.58 4.032 22.9 15.412 25.34zM868.76 475.34c-2.916-7.648-10.183-12.985-18.698-13-2.676 0.163-5.169 0.743-7.481 1.677-77.041 30.823-154.261 21.063-226.581 5.623-1.343-0.315-2.886-0.496-4.47-0.496-11.27 0-20.406 9.136-20.406 20.406 0 9.685 6.748 17.794 15.798 19.883 74.137 16.287 162.677 27.667 250.457-8.093 10.62-3.34 15.46-15.34 11.4-26zM607.080 390.82c74 16.26 162.54 27.64 250.32-8.12 7.607-3.168 12.858-10.543 12.858-19.143 0-2.765-0.543-5.404-1.527-7.815-2.866-7.509-10.133-12.847-18.648-12.862-2.676 0.163-5.169 0.743-7.481 1.677-77.041 30.823-154.261 21.083-226.581 5.623-1.309-0.296-2.811-0.466-4.354-0.466-9.704 0-17.839 6.723-19.998 15.766-2.468 11.52 4.032 22.9 15.412 25.34zM615.2 231.54c-1.343-0.315-2.886-0.496-4.47-0.496-11.27 0-20.406 9.136-20.406 20.406 0 9.685 6.748 17.794 15.798 19.883 74.137 16.287 162.677 27.667 250.457-8.093 7.629-3.158 12.899-10.544 12.899-19.16 0-2.766-0.543-5.406-1.529-7.818-2.866-7.509-10.133-12.847-18.648-12.862-2.676 0.163-5.169 0.743-7.481 1.677-77.081 31.643-154.281 21.083-226.601 6.463zM490.88 142.94v698.92c-131.66 28.46-263.32 42.26-394.98-20.3v-698.94c131.66 62.58 263.32 48.78 394.98 20.32zM169.86 749.22c74.76 16.26 162.54 27.64 250.32-8.12 7.607-3.168 12.858-10.543 12.858-19.143 0-2.765-0.543-5.404-1.527-7.815-2.866-7.509-10.133-12.847-18.648-12.862-2.676 0.162-5.169 0.743-7.481 1.677-77.041 30.823-154.261 21.043-226.581 5.623-1.31-0.297-2.814-0.467-4.358-0.467-9.698 0-17.827 6.714-19.994 15.747-0.385 1.589-0.59 3.252-0.59 4.964 0 9.823 6.745 18.072 15.857 20.366zM169.86 629.76c74 16.26 162.54 27.64 250.32-8.12 7.607-3.168 12.858-10.543 12.858-19.143 0-2.765-0.543-5.404-1.527-7.815-2.866-7.509-10.133-12.847-18.648-12.862-2.676 0.162-5.169 0.743-7.481 1.677-77.041 30.823-154.261 21.063-226.581 5.623-1.309-0.296-2.811-0.466-4.354-0.466-9.704 0-17.839 6.723-19.998 15.766-0.332 1.492-0.506 3.045-0.506 4.639 0 9.873 6.68 18.187 15.768 20.666zM169.86 509.48c74.76 16.26 162.54 27.64 250.32-8.12 10.56-3.26 15.44-15.44 11.38-26-2.916-7.648-10.183-12.985-18.698-13-2.676 0.163-5.169 0.743-7.481 1.677-77.041 30.823-154.261 21.063-226.581 5.623-1.343-0.315-2.886-0.496-4.47-0.496-11.27 0-20.406 9.136-20.406 20.406 0 9.685 6.748 17.794 15.798 19.883zM169.86 390.82c74 16.26 162.54 27.64 250.32-8.12 7.607-3.168 12.858-10.543 12.858-19.143 0-2.765-0.543-5.404-1.527-7.815-2.866-7.509-10.133-12.847-18.648-12.862-2.676 0.163-5.169 0.743-7.481 1.677-77.041 30.823-154.261 21.083-226.581 5.623-1.309-0.296-2.811-0.466-4.354-0.466-9.704 0-17.839 6.723-19.998 15.766-0.332 1.492-0.506 3.045-0.506 4.639 0 9.873 6.68 18.187 15.768 20.666zM178.8 231.54c-1.343-0.315-2.886-0.496-4.47-0.496-11.27 0-20.406 9.136-20.406 20.406 0 9.685 6.748 17.794 15.798 19.883 74.137 16.287 162.677 27.667 250.457-8.093 7.607-3.168 12.858-10.543 12.858-19.143 0-2.765-0.543-5.404-1.527-7.815-2.866-7.509-10.133-12.847-18.648-12.862-2.676 0.163-5.169 0.743-7.481 1.677-77.861 31.623-155.061 21.063-226.581 6.443zM969.54 738.66v-681.86l-59.32 28.44c-56.88 26.82-118.66 40.64-187.74 40.64-57.7 0-116.22-9.76-169.040-20.32l-41.44-8.94-41.44 8.94c-52.82 10.56-111.34 20.32-169.040 20.32-69.080 0-130.84-13-187.74-40.64l-59.32-28.44v681.86h-54.46v-708.66h1024v708.66z" />
<glyph unicode="&#xe904;" glyph-name="california" horiz-adv-x="848" d="M808.76-42.88c2.098 0.415 3.959 1.045 5.702 1.881-0.013 0.254 0.124 0.66 0.239 1.076 0.418 1.621 1.109 2.961 2.035 4.102 1.845 4.861 1.725 9.981-0.335 16.761-0.071 0.229-0.121 0.495-0.139 0.769-0.602 0.191-1.292 0.295-2.007 0.295-0.089 0-0.178-0.002-0.266-0.005-0.035 0-0.091-0.001-0.147-0.001-2.005 0-3.888 0.527-5.516 1.45-0.211-0.004-0.456 0.045-0.69 0.118-2.252 0.74-4.161 2.088-5.576 3.85l-0.298 0.343c-1.562 1.785-2.514 4.138-2.514 6.713 0 2.399 0.826 4.605 2.21 6.348 0.77 1.707 1.229 3.726 1.229 5.853 0 2.31-0.541 4.493-1.503 6.431-0.025 0.052-0.086 0.218-0.136 0.389-1.627 3.686-4.867 12.366 3.993 18.506 0.76 0.88 1.56 1.68 2.38 2.5l0.66 0.64 0.16 0.14c0.122 0.299 0.252 0.685 0.361 1.079 0.404 1.75 1.172 3.201 2.228 4.391l0.111 0.13c0.86 0.98 0.8 2.4 0.64 4.82-0.22 3.14-0.5 7.44 3.28 10.78l2 2.26c1.25 1.562 2.615 2.939 4.111 4.161 0.212 0.17 0.346 0.329 0.445 0.511-0.209 0.768-0.503 1.433-0.876 2.043-0.22 0.405-0.44 0.845-0.66 1.285-1.266 1.989-2.017 4.413-2.017 7.013 0 0.235 0.006 0.468 0.018 0.7-0.101 2.408-0.241 3.488-1.121 4.288-0.392 0.356-0.699 0.798-0.892 1.297-1.548 4.023-1.008 7.403 1.612 10.023 1.015 1.209 2.102 2.29 3.278 3.266 0.359 0.298 0.731 0.509 1.138 0.647 1.629 1.29 2.647 3.246 2.647 5.441 0 0.199-0.008 0.396-0.025 0.591 0.039 0.652 0.265 1.271 0.629 1.785 1.6 2.099 3.483 3.893 5.611 5.356 0.762 0.573 1.462 1.093 2.082 1.633l0.32 0.24 0.3 0.3c0.6 0.58 1.18 1.18 1.8 1.74 0.108 0.148 0.22 0.279 0.34 0.4l0.4 0.54c0.8 0.8 1.6 1.6 2.46 2.34 1.011 1.161 2.070 2.213 3.199 3.186 1.012 1.176 2.039 2.203 3.143 3.143 0.798 0.952 1.658 1.792 2.498 2.632l0.56 0.56c0.39 0.559 0.623 1.252 0.623 2s-0.233 1.441-0.631 2.011c-0.153 0.139-0.297 0.303-0.426 0.479-0.352 0.178-0.757 0.328-1.179 0.439-1.656 0.407-3.047 1.181-4.173 2.235-1.043 0.871-1.989 1.76-2.881 2.7l-0.574 0.575c-0.122 0.121-0.234 0.251-0.334 0.391-0.603 0.545-1.256 1.052-1.944 1.51-0.443 0.044-0.807 0.109-1.147 0.226-2.183 0.74-4.039 2.041-5.44 3.733l-0.156 0.16c-1.706 1.918-2.749 4.459-2.749 7.244 0 0.542 0.039 1.075 0.116 1.595 0.047 0.25 0.078 0.605 0.078 0.968 0 0.871-0.178 1.7-0.501 2.453-1.251 1.223-2.161 2.844-2.553 4.657-0.145 0.566-0.288 0.985-0.457 1.391l-0.135 0.091c-1.668 1.99-2.681 4.578-2.681 7.402 0 0.041 0 0.083 0.001 0.124 0.002 0.048 0.002 0.113 0.002 0.178 0 1.092-0.26 2.123-0.72 3.035l-3.022 4.281c-0.768 1.050-1.522 1.97-2.323 2.845l-0.357 0.295c-1.16 1.14-2.12 2-3 3.080-1.278 1.11-2.425 2.301-3.458 3.586-0.22 0.279-0.374 0.536-0.493 0.811-1.287 2.515-2.036 5.46-2.036 8.581 0 1.081 0.090 2.141 0.263 3.173 0.063 0.632 0.108 1.495 0.108 2.368s-0.045 1.736-0.133 2.587l0.009 2.213c-0.91 0.033-1.774 0.163-2.603 0.378-0.505 0.146-1.010 0.444-1.417 0.842l-46.139 44.859q-58.42 56.8-116.84 113.56-111.080 107.86-222.22 215.62-19.14 18.54-38.52 36.86l-17.44 16.6c-5.040 3.32-4.42 8.44-4 11.52 0.103 0.664 0.175 1.451 0.199 2.251q-0.179 152.589 0.001 305.169c0 0.64 0 1.3 0 2-0.063 0.581-0.098 1.256-0.098 1.939 0 1.54 0.182 3.037 0.525 4.472l-0.266 0.23c-1.731 0.291-3.725 0.457-5.757 0.457-1.191 0-2.369-0.057-3.531-0.169-1.352 0.011-2.832-0.129-4.312-0.129v0h-154q-79.88 0-159.78 0c-0.258 0.007-0.562 0.012-0.866 0.012-1.104 0-2.194-0.055-3.27-0.163-0.631-0.039-1.526-0.067-2.428-0.067-2.236 0-4.432 0.174-6.574 0.509 0.238-0.591 0.238-1.151 0.238-1.711 0.068-0.626 0.107-1.353 0.107-2.088 0-2.33-0.391-4.569-1.11-6.655-2.357-5.677-0.617-9.677 2.703-16.237 7.34-14.54 14.42-31.68 5.4-50.98-2.76-5.88-2.8-12.72-2-21.84v-0.7c1.12-12.68 2.5-28.48-8.38-40-12.040-12.7-17.18-22.24-9.66-36.14 0.479-1.022 0.759-2.219 0.759-3.481 0-0.537-0.051-1.062-0.147-1.571-0.001-0.118-0.007-0.317-0.007-0.518s0.005-0.4 0.016-0.598c-0.001-1.212 0.339-2.112 1.999-3.212 13.84-8.84 23.48-21.68 32.94-35.14 11.26-16 15.1-31.24 11.76-46.46-2.64-12-3.2-21.86 2.58-31.040 1.822-3.134 3.287-6.763 4.205-10.605 0.315-1.215 0.575-2.135 0.855-3.055 0.86-2.82 2.64-8.68-1.74-13.46-1.202-1.056-1.994-2.555-2.119-4.239 0.219-1.441 1.999-3.101 5.059-4.941 8.58-5.020 15.56-12.34 22-23.020 2.358-4.203 5.292-7.775 8.749-10.757 10.051-8.043 17.151-18.243 24.051-28.043l2.18-3.12c8.3-11.82 8.76-13.8 1.82-25.44v0c8.56 0 14.54-5.3 20-10 3.86-3.44 7.56-6.7 12-8 1.341 4.969 2.198 10.713 2.377 16.627l0.163 2.493c0.64 8.88 7.16 10.68 12 11.28 7.14 0.86 11.1-3.060 14.18-6.7 1.849 0.207 3.992 0.324 6.163 0.324 4.651 0 9.176-0.541 13.515-1.563 3.106-0.664 7.227-1.186 11.434-1.375 3.451 1.17 7.24 1.85 11.187 1.85 5.263 0 10.244-1.209 14.68-3.364-0.090 0.1 0.038 0.107 0.167 0.107 1.933 0 3.5-1.567 3.5-3.5 0-0.863-0.313-1.654-0.831-2.264-0.756-0.827-1.845-1.347-3.057-1.347-0.112 0-0.224 0.004-0.334 0.013l-0.265-0.001c-2.353 0.127-4.531 0.763-6.462 1.8-2.078 0.92-3.358 1.46-4.738 1-8-2.28-16-1.44-23.62-0.66-9.4 0.98-18.3 1.9-26.6-2.74-4.38-3.54-5.16-5.72-1.66-12.1 1.52-2.76 3.26-5.44 5.1-8.26 4.96-7.6 10-15.48 10.96-25.64 0.1-1.22 2-2.5 3.74-3.74l1.34-0.92c1.7-1.12 4.26-2.8 4.52-5.86 0.002-0.061 0.003-0.134 0.003-0.206 0-2.26-1.050-4.275-2.689-5.583-1.499-1.565-3.589-2.532-5.904-2.532-0.039 0-0.078 0-0.117 0.001-2.693 0.302-5.015 1.702-6.536 3.735-2.098 2.151-4.276 4.151-6.557 6.032-7.541 6.853-15.921 14.513-14.141 28.533-0.12 0.32-1.080 0.76-2.64 0.52-0.444-0.034-0.852-0.155-1.217-0.348 0.049-0.632 0.171-1.232 0.371-1.796 1.606-5.156 0.226-9.836-1.514-14.116-0.514-1.062-0.814-2.309-0.814-3.626 0-2.623 1.191-4.967 3.061-6.523 4.337-3.875 7.046-9.467 7.046-15.692 0-2.704-0.511-5.288-1.441-7.662-1.791-5.097-0.731-8.877 4.169-14.277 2.6-2.88 5.12-5.8 7.66-8.72 1.8-2 3.6-4.16 5.42-6.22 5.26-6 7.8-7.44 12.42-4.5 1.364 0.844 3.018 1.345 4.789 1.345 1.601 0 3.107-0.409 4.419-1.129 7.452-3.536 12.732-11.756 13.732-21.396s-2.26-18-8.72-22.98c-2.9-2.22-3.060-2.5-2.94-3.74 0.16-1.76 0.3-3.54 0.44-5.32 1.020-13.28 1.9-24.74 15.040-31.040 3.506-1.727 6.257-4.541 7.857-7.997 3.275-6.423 6.777-11.855 10.747-16.9 4.152-5.256 8.060-11.429 11.302-17.99 0.814-1.833 1.334-3.153 1.874-4.473 3.12-7.84 5.52-12.68 12.56-13.68 2.76-0.4 4.44-2.96 5.56-4.66 5.26-8 10.76-15.52 20-19.68 4.15-1.514 7.060-5.427 7.060-10.020 0-2.233-0.688-4.305-1.863-6.017-0.897-1.684-3.057-5.704-2.937-6.724 2.35-1.302 5.077-2.44 7.935-3.269 7.025-2.411 11.925-4.891 13.865-9.391s0.16-10-2.12-15.2c-1.88-4.2-2.42-5.7-1.12-8.24 4.96-9.68 4-20 2.3-28.92-0.12-0.64-0.28-1.3-0.44-2-0.304-0.92-0.479-1.979-0.48-3.080 2.274-1.379 4.193-2.698 6.034-4.114 6.066-4.487 11.426-8.427 18.306-6.367 11.26 3.4 20.72-0.42 28.34-3.48 4.724-2.122 10.24-3.359 16.045-3.359 3.053 0 6.026 0.342 8.883 0.99l1.112 0.309c2.74 0.74 6.86 1.86 10.36-1.32 2.702-2.235 5.747-4.232 9.002-5.873 7.998-4.327 16.738-9.107 18.438-21.367 0.22-1.58 2.52-2.68 5.52-4 1.38-0.6 2.6-1.080 3.82-1.56 3.602-1.302 6.683-2.779 9.588-4.518 5.752-3.622 9.752-4.982 16.232-2.522 13.38 5.040 20.32 1.040 23.8-3.2l1.5-1.8c4.98-6 11.18-13.34 9.080-24-0.2-0.597-0.315-1.285-0.315-2s0.115-1.403 0.329-2.046c0.115 0.037 0.265 0.032 0.417 0.032 1.163 0 2.256 0.302 3.204 0.831 2.509 1.121 5.473 1.802 8.592 1.843 7.215 0 12.715-4 16.955-8 6.942-6.75 14.494-12.956 22.537-18.5 18.683-12.24 30.743-29.58 38.583-54.96 0.48-1.54 1.020-3.080 1.58-4.64 2.68-7.54 5.72-16 1.020-25.58-0.52-1.060-0.36-1.56-0.28-1.76s0.84-1.64 3.78-3c0.475-0.212 1.078-0.437 1.697-0.627 2.923-0.973 8.723-2.913 7.683-10.673-0.112-0.433-0.176-0.929-0.176-1.441 0-1.22 0.364-2.355 0.989-3.302 1.026-0.958 3.486-1.218 6.506-0.638 5.818 1.036 12.744 1.787 19.787 2.089 3.853 0.231 7.353 0.451 10.853 0.791l151.3 14.96c2.541 0.654 5.48 1.071 8.502 1.159 1.654 0.68 3.564 1.299 5.537 1.754z" />
<glyph unicode="&#xe905;" glyph-name="clipboard" horiz-adv-x="663" d="M485.14 773.28v86.96h-52c-9.941 0-18 8.059-18 18 0.002 0.224 0.004 0.488 0.004 0.753 0 22.544-9.486 42.873-24.685 57.211-15.134 15.006-35.921 24.256-58.869 24.256-45.678 0-82.795-36.651-83.548-82.149-0.001-10.012-8.060-18.071-18.001-18.071h-52v-86.96h307.1zM331.68 926.74c27.28 0 49.46-22.16 49.46-48.6-0.301-26.719-21.881-48.299-48.571-48.6h-0.889c-26.841 0-48.6 21.759-48.6 48.6s21.759 48.6 48.6 48.6zM331.68 863.66c8.52 0 14.5 6 14.5 13.64 0.001 0.054 0.001 0.118 0.001 0.181 0 7.434-6.026 13.46-13.46 13.46-0.064 0-0.127 0-0.191-0.001-8.51 0-14.49-6-14.49-13.64-0.001-0.054-0.001-0.118-0.001-0.181 0-7.434 6.026-13.46 13.46-13.46 0.064 0 0.127 0 0.191 0.001zM645.44 822.72h-125.34v-67.36c0-9.941-8.059-18-18-18h-340.96c-9.941 0-18 8.059-18 18v67.36h-125.14c-9.941 0-18-8.059-18-18v-850.72c0-9.941 8.059-18 18-18h627.44c9.941 0 18 8.059 18 18v851.68c-0.139 9.448-7.83 17.054-17.298 17.054-0.247 0-0.492-0.005-0.737-0.015zM411.82 674.38c15.476-0.164 29.881-4.608 42.129-12.201 11.361 7.73 25.657 12.203 40.997 12.203 0.153 0 0.306 0 0.458-0.001 22.314-0.053 42.512-9.174 57.091-23.874 15.345-15.345 23.025-35.825 23.025-58.005v-4.26c-0.86-25.58-14.5-49.46-36.66-64.8l-74.18-53.72c-2.815-2.127-6.373-3.408-10.23-3.408s-7.415 1.28-10.273 3.439l-74.997 52.849c-22.16 15.34-35.82 39.22-36.66 64.8-0.56 1.040-0.889 2.275-0.889 3.588 0 0.237 0.011 0.471 0.032 0.702 0.018 45.17 35.818 82.69 80.158 82.69zM105.82 670.96h152.62c9.092-0.991 16.105-8.626 16.105-17.9s-7.013-16.909-16.025-17.893l-152.8-0.007c-9.941 0-18 8.059-18 18 0.96 10.12 8.62 17.8 18 17.8zM105.82 582.28h152.62c9.137-0.944 16.202-8.602 16.202-17.91s-7.065-16.966-16.125-17.904l-152.797-0.006c-9.941 0-18 8.059-18 18 0.96 10.16 8.62 17.82 18 17.82zM105.82 494.46h152.62c9.137-0.944 16.202-8.602 16.202-17.91s-7.065-16.966-16.125-17.904l-152.797-0.006c-9.941 0-18 8.059-18 18 0.96 10.16 8.62 17.82 18 17.82zM557.62 201.16h-156.88l-52-163.7c-2.342-7.029-8.861-12.008-16.543-12.008-0.182 0-0.363 0.003-0.543 0.008-7.748 0.124-14.348 5.015-16.991 11.873l-95.543 300.247-39.12-123.58c-2.342-7.029-8.861-12.008-16.543-12.008-0.182 0-0.363 0.003-0.543 0.008l-56.334-0.001c-9.137 0.944-16.202 8.602-16.202 17.91s7.065 16.966 16.125 17.904l43.497 0.006 52.86 164.56c2.342 7.029 8.861 12.008 16.543 12.008 0.182 0 0.363-0.003 0.543-0.008 7.748-0.124 14.348-5.015 16.991-11.873l94.683-301.947 40 123.64c2.342 7.029 8.861 12.008 16.543 12.008 0.182 0 0.363-0.003 0.543-0.008l169.654 0.001c9.941 0 18-8.059 18-18-1.7-8.5-9.36-17.040-18.74-17.040zM388.8 551.6l64.8-46 64.8 46c12.082 8.861 20.15 22.583 21.31 38.228l0.010 2.732c0 0.002 0 0.005 0 0.007 0 12.964-5.242 24.703-13.721 33.214-7.995 8.281-19.145 13.474-31.508 13.638-0.091 0.001-0.161 0.001-0.232 0.001-11.525 0-21.98-4.576-29.649-12.011-6.809-5.989-17.049-6.809-23.869 0.011-7.784 7.338-18.27 11.885-29.817 12-24.743 0-44.363-21.32-44.363-47.74v-2.56c0.92-14.5 9.44-28.14 22.24-37.52z" />
<glyph unicode="&#xe906;" glyph-name="connecticut" d="M1014.7 781.7c-1.22 0.1-2.48 0.14-3.7 0.24-51.38 4.18-104 3.56-154.8 2.84-36.46-0.5-74.14-1.040-111.52 0.22-66.42 2.2-134.3 0.94-200-0.3-100-1.86-202.86-3.22-305.22 6.9-8.14 0.8-16.3 1.22-24.44 2.18-1.3 0.16-2.62 0.2-4 0.36-3.018-1.161-6.51-1.836-10.158-1.84h-0.002c-6.929 0.038-13.289 2.443-18.321 6.447-19.939 9.433-40.939 9.833-64.139 5.953-4.24-0.7-8.4-1.3-12.8-2.28-0.32-1.44-0.44-2.94-0.72-4.4-5.24-26.36-4.44-53.78-3.42-82.56 0.406-7.818 0.638-16.973 0.638-26.181 0-14.669-0.587-29.2-1.74-43.573 3.564-1.704 5.841-6.44 6.335-11.695 0.447-5.251 1.047-10.431 1.627-15.611 0-0.68 0.14-1.34 0.22-2 3.14-27.28 6.84-60.32-10.72-91.36-3.046-5.381-6.228-10.011-9.764-14.341-1.807-2.055-4.141-3.897-6.766-5.257-0.75-22.401-0.73-44.761-0.55-67.121 0.28-33.3 0.56-67.74-1.88-102-0.125-1.706-0.409-3.288-0.841-4.808-9.619-34.752-11.439-59.192 8.041-80.732 1.672-1.859 3.064-4.014 4.081-6.368 30.059-46.152-7.301-76.152-26.801-91.252-9.76-9-21.2-12.36-29.62-14.82-3.658-0.978-6.783-2.118-9.777-3.495-0.878-1.449-2.3-2.839-3.884-4.023-2.918-2.182-5.958-4.202-8.998-6.202-3.74-2.48-10-6.62-10.96-8.54-0.013-0.193-0.021-0.418-0.021-0.646 0-0.865 0.11-1.704 0.316-2.504 0.702-2.554 1.5-4.767 2.448-6.9 4.317-9.851 11.697-12.931 29.577-14.631 3.36-0.32 7.040-0.6 11.2-0.88 8.94-0.435 17.207-1.278 25.339-2.53 1.979 1.050 4.767 2.020 7.461 3.169 19.24 6.541 34.66 21.241 51.76 38.421 17.58 17.64 37.48 37.6 64.66 48.68 18 7.28 35.78 14.76 53.62 22.22 118.36 49.48 240.64 100.92 379.1 99.64 15.78-0.24 33.7 1.88 51.66 4 46.74 5.58 99.74 11.88 151.72-24.42 9.060-6.36 20.68-1.36 43.22 10.62 7.12 3.8 14.18 7.5 21.080 10.44 1.858 0.827 4.013 1.433 6.27 1.709 61.89 7.651 94.79 11.911 112.65 28.311 0.133 3.865 0.492 7.52 1.067 11.104 5.833 105.396 6.233 222.816 0.813 355.856-0.98 24 1 43.6 6 59.72 1.386 3.528 2.717 6.386 4.191 9.155-2.884 5.416-5.966 10.492-9.578 15.135z" />
<glyph unicode="&#xe907;" glyph-name="florida" d="M1017.5 207.020c-0.46 30-0.88 58.26-22.66 81.32-2.088 2.127-3.376 5.045-3.376 8.263 0 0.217 0.006 0.433 0.017 0.647 1.999 17.11-3.301 32.73-9.001 49.27-2.554 6.647-5.195 15.152-7.356 23.847-6.064 27.453-13.004 47.813-22.184 65.753-24 47.040-35.74 96-34.72 145.54 0.004 0.246 0.006 0.536 0.006 0.827 0 9.97-2.589 19.334-7.133 27.458-31.854 62.375-50.594 112.815-60.334 163.275-2 10.54-3.64 21.3-5.18 31.7-2.72 18.36-5.54 37.36-10.86 55.3-3.851 11.99-6.070 25.782-6.070 40.094 0 1.536 0.026 3.065 0.076 4.588-1.774 0.661-4.026 1.619-6.333 2.461-5.233 1.897-10.193 3.277-15.313 4.697-8.96 2.46-18.22 5-26.86 9.8-3.32 1.86-5.74 0.8-11.38-2.42l-2.3-1.32c-4.94-6-4.58-12.52-1.86-22.62 2.235-2.693 3.591-6.185 3.591-9.993 0-4.191-1.642-7.998-4.318-10.813-0.497-0.876-0.794-1.934-0.794-3.061 0-0.011 0-0.023 0-0.034 0.22-7.638-0.26-15.438-5.24-20.698-3.159-3.155-7.52-5.106-12.338-5.106-0.156 0-0.311 0.002-0.465 0.006h-0.577c-14.56 0-16.46 13.060-17.74 21.74-1.46 10-6.98 14.72-16.52 14.78h-3.1c-6.64 0-13.66 0-20.72 2.4-1.623 0.275-3.493 0.432-5.4 0.432s-3.777-0.157-5.598-0.459c-6.922-0.653-14.962-1.393-22.642 4.247-0.32 0.24-0.66 0.42-1 0.64-5.46 3.5-11.64 3.040-18.74 2.44-2.42-0.2-4.82-0.4-7.22-0.46l-1.88-0.32-1-0.16c-10.5-1.76-22.3-3.52-33.88 2.28-0.329 0.163-0.611 0.335-0.875 0.531-0.325 0.249-0.705 0.429-1.045 0.669-5.46 3.46-11.68 2.98-18.78 2.38-2.38-0.2-4.76-0.4-7.12-0.46l-3-0.46-1.4-0.22c-10-1.6-21.3-3.38-32.46 2.54-0.282 0.15-0.524 0.309-0.75 0.488-0.33 0.232-0.67 0.432-1.010 0.632-5.2 3.34-11.16 2.96-18 2.5-2.6-0.18-5.28-0.3-7.74-0.34-1.6-0.2-3.2-0.32-4.82-0.46-24.3-2.36-48.38 0.28-71.72 2.88-13.74 1.54-28 3.12-42 3.6-0.407 0.019-0.791 0.076-1.16 0.169-4.661 0.773-8.817 2.683-12.274 5.433-0.425 0.297-0.834 0.693-1.176 1.144-0.209 0.27-0.395 0.558-0.555 0.862-5.555 10.412-4.155 20.932-2.375 29.852 0.12 0.58 0.22 1.18 0.34 1.74-0.432 1.155-1.117 2.13-1.992 2.893-1.271 1.086-2.687 2.055-4.201 2.865-1.1 0.616-1.873 1.421-2.373 2.391-1.011 1.92-2.357 3.496-3.98 4.726l-0.235 0.165c-92.88-0.92-191.24-0.88-318.4 0.12-19.16 0-23.74-3.62-23.86-18.26 0.012-0.132 0.019-0.285 0.019-0.44s-0.007-0.308-0.020-0.46c-0.419-2.5 0.541-3.56 4.481-6.68 0.88-0.7 1.74-1.38 2.58-2.1 3.68-2.54 4.8-6.78 5.78-9.88 0.24-0.84 0.48-1.64 0.74-2.32l3.28-2c12.36-8.92 11.3-20.82 10.44-30.36-0.58-6.52-1.080-12.16 1.88-16.48 0.613-0.887 0.98-1.986 0.98-3.17 0-0.472-0.058-0.93-0.168-1.368l-2.592-10.661c0.648-1.279 1.284-2.821 1.809-4.413l0.211-0.647c2 1.52 4 2.84 5.78 4.12 10 6.88 16 11.62 14 22.5-1.040 5.42 0.4 10 3.82 12.26 1.82 1.2 5.72 2.68 11.16-0.94 2-1.34 2-1.34 5.56 0.74l1.14 0.68c6 3.4 10.74 1.86 13.28-0.72 1.747-1.979 2.813-4.595 2.813-7.46 0-2.307-0.692-4.453-1.879-6.242-0.878-1.228-1.569-2.72-1.956-4.331 0.462-0.467 4.202-2.447 5.622-3.187 5.945-3.212 13.013-5.1 20.522-5.1 9.361 0 18.037 2.934 25.159 7.933 11.86 8.607 23 8.167 32.9 7.747 1.337-0.096 2.896-0.151 4.468-0.151 2.838 0 5.634 0.178 8.378 0.524 12.233 1.966 21.673-5.894 24.973-20.954 0.079-0.354 0.125-0.761 0.125-1.179 0-1.658-0.718-3.148-1.86-4.177-1.622-1.458-3.579-2.568-5.74-3.198l1.115-0.626 3.24-1.6c7.74-3.84 15.74-7.78 23.36-12.3 1.84-1.1 2.18-1.32 6 2.98 3.3 3.62 9.44 10.38 18.72 5.56 0.909-0.471 1.653-1.15 2.187-1.978l1.273-0.342c2.82-0.68 7.52-1.8 8.78-6.42 1.060-3.88-1.2-7.32-3.76-10-0.7-4.72-0.36-8 1.020-9.86s3.82-2.7 7.64-3.060c8.76-0.84 15.060-3.6 18.68-8.14 2.093-2.679 3.356-6.094 3.356-9.804 0-0.881-0.071-1.745-0.208-2.588-0.928-7.068 1.792-9.488 8.572-14.748 9.68-7.52 14.44-16.9 14.2-27.88 0-3.1 0.3-7.16 2.52-8.94 1.78-1.42 5.16-1.58 9.52-0.48s9.1 2.2 13.68 3.24c19.78 4.52 38.46 8.78 53.3 22 9.28 8.32 19.18 12.52 29.68 12.12-1.533 1.765-2.616 3.959-3.048 6.379-0.070 0.384-0.104 0.732-0.104 1.088 0 1.973 1.024 3.707 2.57 4.699 2.461 1.882 4.564 4.017 6.341 6.408 4.841 5.866 11.361 13.726 23.581 12.666 1.163-0.066 2.524-0.104 3.894-0.104 3.019 0 5.994 0.183 8.917 0.539 12.809 1.105 29.169 2.485 38.989-16.835 1.63-0.647 3.552-1.188 5.541-1.534l2.179-0.446c18.32-4.16 31.28-16.16 38.56-35.62 0.62-1.62 1.080-3.34 1.54-5.060 1.34-5.060 2-7.060 4.68-8 11.52-4.26 14.56-13.56 17.24-21.78l0.94-2.82c5.16-15.080 15.060-27.080 25.56-39.76 7.303-8.291 14.097-17.44 20.099-27.131 1.001-1.27 1.597-1.574 2.248-1.742 28.453-1.787 43.153-17.367 42.613-45.107 20.42-43.44 9.2-86.42-4-126.74-0.779-2.2-1.561-4.008-2.447-5.756-2.093-4.404-2.533-5.924-1.373-7.724 5.8-9.26 2.68-17.3 0.2-23.76l-0.84-2.2c-7.3-20-8.48-32.82 6.16-44l1.18-0.94c3.1 3.76 5.18 6.52 5.32 7.86s-3.76 5.8-6.12 8.42c-8.16 9.18-9.56 18.16-4.56 29.14 0.904 1.951 2.845 3.28 5.097 3.28 0.001 0 0.002 0 0.003 0v0c11.32 0 17.2-6.22 22-11.2 1.020-1.060 2-2.12 3.060-3.080 0.939 0.639 2.099 1.021 3.348 1.021 0.458 0 0.904-0.051 1.332-0.148 0.439-0.112 1.030-0.217 1.633-0.286 2.587-0.346 6.067-0.846 8.207-3.786 11.46-15.72 10.96-22.66-3.040-41.3-21.86-29.12-24.66-50.84-9.7-74.96 4.14-7.030 7.917-15.188 10.885-23.725 1.835-4.975 3.355-9.135 5.095-13.115l2-4.72c4-9.48 8.32-19.3 13-28.6 0.893-1.911 2.151-3.514 3.696-4.781 1.144-0.819 1.704-0.659 2.364-0.319 0.676 0.268 1.246 0.677 1.695 1.195-0.639 2.141-1.574 4.003-2.773 5.66l-1.122 1.945c-0.302 0.513-0.532 1.11-0.654 1.745-0.146 0.657-0.298 1.172-0.476 1.674-0.749 2.361-2.069 6.521 0.691 9.901 1.88 2.34 4.94 3.32 8.92 2.94 0.023 0 0.050 0 0.077 0 0.894 0 1.765 0.102 2.601 0.295 3.283 0.485 8.383 1.265 12.063-2.355 3.28-3.22 3.22-8 2.98-10.48 3.74-15.040 4-30.28 4.18-45.020 0.1-7.040 0.22-14.3 0.72-21.38 0.659-0.39 1.453-0.62 2.301-0.62 1.514 0 2.857 0.735 3.69 1.867 1.102 1.503 1.899 3.281 2.275 5.21 0.817 3.387 2.162 6.288 3.967 8.843 0.98 1.262 2.587 2.117 4.394 2.117 3.093 0 5.6-2.507 5.6-5.6 0-0.511-0.068-1.006-0.197-1.476-0.715-2.406-1.497-4.456-2.412-6.432-1.699-3.969-2.679-6.509-1.519-9.269 6.2-5.38 13.8-12.1 12-24.46-1.2-8.56 0.68-17.040 2.68-26 0.82-3.72 1.64-7.44 2.26-11.16 2.74-16.7 10.2-28 23.48-35.38s25.74-15.8 38-24l8-5.34c1.040-0.68 2.3-1.34 3.56-2 4.68-2.44 10.48-5.48 10.74-11.66 0.22-5.4-4.16-9.4-8.54-12.38 6-8.86 8.58-18.64 11.12-28.1 2.12-7.86 4.1-15.3 7.86-22 0.369-0.633 0.619-1.38 0.698-2.177 0.642-6.443 4.702-9.183 11.822-13.503 1.78-1.080 3.56-2.16 5.24-3.32 0.41-0.285 0.765-0.608 1.073-0.972 2.198-2.092 4.883-3.678 7.868-4.572 4.174-1.434 7.661-3.432 10.692-5.959 3.007-3.097 4.907-3.557 7.227-1.157 5.7 5.86 12.56 7.58 18.62 9.1 1.3 0.32 2.6 0.64 3.88 1.020 1.359 0.416 2.453 0.824 3.519 1.284 4.241 1.696 11.781 4.716 18.041-1.224 0.645-0.611 1.235-1.264 1.771-1.961 0.156 5.917 2.124 11.39 5.384 15.861-0.235 0.34-0.415 0.76-0.535 1.12-7.14 19.62-13.16 48.16 17.080 69.040 0.478 1.089 0.775 2.354 0.82 3.683l0.16 1.357c1.3 9.58 2.68 19.16 4 28.74 6 41.44 12.18 84.28 10.72 126.9-0.14 4.58-0.2 9.44-0.28 14.3z" />
<glyph unicode="&#xe908;" glyph-name="georgia" horiz-adv-x="788" d="M382.88 923.78c0.431 0.923 1.025 1.703 1.751 2.333 0.389 0.607 0.789 1.307 1.209 2.007 1.003 1.894 2.058 3.517 3.238 5.038 1.364 1.52 2.619 3.318 3.65 5.254 1.172 2.218 2.233 3.944 3.386 5.601 0.434 0.534 1.098 1.121 1.854 1.569 1.312 1.218 2.572 2.478 3.812 3.718 0.513 0.862 1.183 1.577 1.978 2.125l1.742 1.175c0.98 0.66 1.78 1.22 2.48 1.72q-40.28 0-80.56 0-51.12 0-102.18 0c-0.826 0.006-1.616 0.152-2.349 0.416-3.406 1.218-6.38 3.013-8.916 5.287l-1.155-0.022c-1.86 0-3.76 0-5.62 0-7.2-2.52-14.32-2.38-20.9-2.22h-5.54q-68.6-0.44-137.22-0.74l-41.4-0.36c-0.819-0.425-1.52-0.87-2.178-1.367l0.438-0.813 0.76-1.62c0.435-0.883 0.692-1.92 0.7-3.017v-5.703c3.16-6.82 3.080-13.82 3-20 0-6-0.12-11.040 2.38-15.22 0.394-0.656 0.693-1.421 0.853-2.235 3.187-6.885 3.107-13.925 3.047-20.165 0-6-0.12-11.060 2.38-15.26 0.376-0.64 0.667-1.383 0.832-2.172 3.608-7.528 3.268-15.228 2.948-22.048-0.26-5.84-0.5-10.96 1.58-15.28 0.293-0.324 0.557-0.684 0.783-1.069 4.757-8.131 4.397-16.631 4.017-24.031-0.26-6.46-0.5-12 2.3-16.64 0.346-0.576 0.622-1.243 0.79-1.952 3.23-7.008 3.23-14.088 3.23-20.368s-0.1-11.22 2.44-15.5c0.357-0.641 0.622-1.388 0.754-2.179 3.106-6.881 3.046-13.861 2.986-20.041s-0.1-11.14 2.4-15.4c0.323-0.547 0.584-1.18 0.75-1.851 3.67-7.569 3.31-15.349 3.010-22.249-0.26-5.82-0.5-10.96 1.54-15.28 0.308-0.336 0.586-0.709 0.823-1.109 4.757-8.031 4.397-16.611 4.017-24.031-0.28-6.46-0.5-12 2.3-16.6 0.452-0.717 0.781-1.558 0.934-2.46 3.066-6.82 2.986-13.78 2.946-20.040s-0.12-11.12 2.38-15.36c0.34-0.576 0.609-1.244 0.771-1.953 3.669-7.567 3.309-15.327 3.009-22.227-0.26-5.84-0.48-10.96 1.54-15.28 0.3-0.33 0.571-0.697 0.803-1.089 4.777-8.031 4.417-16.611 4.017-24.031-0.28-6.44-0.5-12 2.3-16.56 0.447-0.724 0.776-1.571 0.934-2.477 3.086-6.823 3.006-13.763 2.946-20.043s-0.12-11.080 2.38-15.3l6.12-12.98c3.9-5.68 3.9-11.9 3.9-16.96 0-4 0-6.76 1.2-8.78 0.324-0.278 0.612-0.58 0.87-0.906l1.11-1.394c2.253-2.572 4.197-5.5 5.72-8.669l5.12-6.511c4-4.6 4.34-10 4.68-14.38 0.006-1.998 0.342-3.916 0.957-5.704 0.637-0.37 1.197-0.975 1.627-1.669 4.396-7.127 4.236-14.507 4.016-21.047-0.12-5.26-0.22-9.82 2-13.36l0.92-1.12c3.3-4.12 10.18-12.74 1.76-22.92-0.873-1.050-2.028-1.837-3.35-2.247-2.060-0.651-3.756-1.803-5.037-3.318-0.461-0.801-1.029-1.465-1.7-2.005-1.679-1.319-3.153-2.729-4.479-4.269-0.283-0.44-0.547-0.787-0.839-1.106-1.995-2.175-1.995-5.055-1.995-9.995 0.055-0.697 0.086-1.509 0.086-2.329 0-4.592-0.981-8.955-2.746-12.891 0.44-6.5 0.080-15.38-7.74-21.8-1.067-2.568-1.751-5.544-1.898-8.661-0.285-4.936-1.435-9.474-3.3-13.622l0.258-15.057c1.964-4.526 3.107-9.797 3.107-15.334 0-0.508-0.010-1.015-0.029-1.518 0.122-4.547 0.242-8.567 2.002-11.707 8.96-9.4 8.32-20.62 7.8-29.66-0.12-2.1-0.24-4.22-0.24-6.3 0-0.010 0-0.021 0-0.033 0-1.481-0.456-2.856-1.236-3.991-1.504-2.216-1.744-5.336-1.984-8.976-0.122-4.585-1.088-8.912-2.748-12.876-5.812-14.564-6.072-28.364-0.612-41.624 0.92-0.64 1.82-1.26 2.76-1.84 1.231-0.783 2.185-1.905 2.743-3.234 1.023-2.195 2.297-4.037 3.824-5.634l-0.007 0.008c0.281-0.15 0.517-0.296 0.742-0.455 10.638-8.905 7.978-21.365 7.058-25.985-0.33-1.381-1.034-2.565-1.997-3.477 0.517-0.743 1.077-1.363 1.537-2.183 4.56-2.68 11.56-7.64 13.5-17 0.091-0.43 0.144-0.924 0.144-1.43s-0.052-1-0.152-1.477c-2.552-12.273-3.992-21.813 0.348-30.873 2-1.58 4.64-2.3 8.64-3.28 17.2-0.58 35.4-2.6 53.020-4.56 30.72-3.42 62.5-6.96 93.72-3h0.96c3.040 0 6 0.18 9.12 0.4 10.38 0.72 22 1.52 33-6.4 9.78-4.96 20.42-3.3 31.68-1.48 2 0.32 4.14 0.66 6.22 0.94h0.86c2.82 0 5.66 0.3 8.5 0.54 10.72 0.88 22.82 1.88 34.1-6.2 10.82-5.14 22.52-3.2 34.88-1.12l2.92 0.48c0.156 0.011 0.337 0.017 0.52 0.017s0.364-0.006 0.544-0.018c2.856 0.001 5.756 0.281 8.656 0.541 10.8 0.9 23.060 2 34.48-6.62 5.080-3.7 10.6-3.42 19.12-2.62 2.368 0.373 5.1 0.586 7.881 0.586 3.96 0 7.819-0.432 11.533-1.252 6.786-2.355 14.046-2.335 21.646-2.335h4c18.94-0.12 31.88-11.32 34.62-30 2.14-14.74 3.72-16.3 8.94-16.1 4.38 0.1 5.76 1.56 6.2 2 3.12 3.3 2.86 12.18 2.74 16-0.002 0.112-0.003 0.244-0.003 0.376 0 4.535 1.32 8.761 3.598 12.316 0.354 0.589 0.845 1.169 1.416 1.661 0.886 0.978 1.422 2.27 1.422 3.688s-0.536 2.71-1.417 3.685c-0.801 0.702-1.439 1.578-1.858 2.569-0.125 0.293-0.227 0.593-0.308 0.902-3.030 10.885-8.010 28.885 5.75 44.245 0.563 0.615 1.224 1.13 1.961 1.521 1.259 0.659 2.459 1.359 3.679 2.019 7.060 4 16.7 9.58 28.28 3.16 9.4-5.24 19.76-8 30.74-11.1 5.2-1.42 10.48-2.9 15.72-4.64 3.127 1.683 5.57 4.294 7 7.46 4.94 18.92-0.4 36.48-6.92 52.7-4.6 11.4 0.92 28.84 8.64 38.46 5.34 6.64 11.8 9.74 18 8.68 1.419-0.363 3.048-0.572 4.725-0.572 0.505 0 1.005 0.019 1.501 0.056s0.294 0.856 0.854 2.976c1.080 4 0.98 5.060-8.38 8.76-3.054 1.18-5.694 2.642-8.096 4.407-9.904 3.653-8.864 11.293-7.904 14.513 0.166 0.531 0.363 0.988 0.6 1.42 5.2 9.48 14.18 7.14 17.54 6.24 0.528-0.162 1.202-0.322 1.889-0.444-0.189 0.684-0.469 1.404-0.709 2.124-0.228 0.665-0.36 1.43-0.36 2.227 0 2.53 1.331 4.749 3.331 5.996 4.030 2.497 6.39 5.177 6.95 8.017 0.68 3.54-1.080 8.22-5.24 14-0.853 1.153-1.365 2.603-1.365 4.172 0 1.987 0.821 3.783 2.143 5.066 5.902 5.702 12.362 6.142 17.082 6.442l1.86 0.14c-0.12 0.5-0.28 1.020-0.44 1.5-7.32 23.64-5.46 27.4 18 36.62 1.358 0.459 2.529 1.141 3.533 2.011-0.133 0.109-0.313 0.629-0.853 1.469-6 9.38-10.68 19.060-5.66 26.3 4.82 6.94 14.8 6.12 23.26 4.46 0.44 6.28 3.32 11.24 5.88 15.62 2.34 4 3.88 6.86 4 9.78-0.287 0.271-0.593 0.533-0.912 0.779l-0.908 0.341c-4.56 1.74-6.24 2.16-7.74 1.22-0.541-0.332-1.166-0.605-1.828-0.788l-0.852-0.232c-0.547-0.151-1.174-0.238-1.822-0.238-0.86 0-1.684 0.153-2.447 0.434-4.634 1.896-8.627 4.605-11.946 7.979-0.566 0.515-1.039 1.109-1.407 1.77-5.078 6.895-4.398 14.435-3.898 20.035 0.179 1.489 0.282 3.213 0.282 4.962 0 0.14-0.001 0.28-0.002 0.42-0.11 1.141-0.172 2.493-0.172 3.859s0.063 2.717 0.185 4.051c0.227 3.829 0.327 6.429-0.833 8.429l-0.36 0.36c-7.86 8.14-9.58 18.7-11.12 28-2 12-3.62 19.6-12.38 24.2-1.257 0.678-2.262 1.683-2.921 2.902-0.639 1.198-1.579 1.598-5.579 2.458-3.635 0.589-6.889 1.837-9.773 3.625-1.191 0.571-2.244 1.552-2.949 2.761l-0.278 0.554c-5.080 10.56-4.42 21.62-3.84 31.36 0.52 8.56 1 16.66-2.16 23.8-3.64 4.3-3.88 9.3-4 13.020 0.002 0.093 0.003 0.203 0.003 0.313 0 1.369-0.191 2.694-0.548 3.949-0.218 0.085-0.433 0.275-0.635 0.478-4.62 4.56-4.9 10.12-5.1 14.18 0.002 0.091 0.003 0.199 0.003 0.306 0 1.392-0.191 2.74-0.548 4.018-0.792 0.472-1.462 1.2-1.957 2.043-2.261 4.228-5.616 7.576-9.692 9.751-1.039 0.566-1.801 1.238-2.392 2.042-0.766 0.354-1.672 0.669-2.607 0.911-3.72 0.838-6.84 2.52-9.361 4.841l-0.386 0.427c-0.826 0.393-1.798 0.742-2.809 0.996-3.71 0.839-6.835 2.52-9.367 4.837-0.352 0.359-0.682 0.772-0.967 1.216-1.278 1.29-2.518 2.55-3.818 3.75-1.218 0.749-2.173 1.82-2.762 3.096-0.321 0.704-0.533 1.469-0.616 2.273-1.345 7.934-4.909 14.84-10.021 20.271-0.351 0.304-0.679 0.658-0.969 1.042-1.367 1.702-2.761 3.21-4.251 4.618l-0.602 0.6-0.42 0.36c-9.12 8.48-10.42 19.5-11.56 29.2-1 8.52-1.86 15.86-7.52 20.84-0.534 0.476-0.992 1.023-1.362 1.629-1.276 1.466-2.583 2.773-3.97 3.99l-0.648 0.541-0.16 0.14c-1.008 0.886-2.135 1.682-3.342 2.35-2.127 1.173-3.874 2.365-5.5 3.699-1.276 0.97-2.787 1.95-4.369 2.816-1.769 1.014-3.369 1.954-4.869 3.014l-0.5 0.38c-6 3.76-9.12 9.28-11.88 14.2-0.94 1.68-1.88 3.38-2.96 4.96-1.4 2.49-2.389 5.403-2.787 8.5-0.153 1.386-0.442 2.544-0.865 3.634-0.642 0.46-1.202 1.122-1.63 1.871l-0.018 0.035c-3.59 6.599-8.8 11.918-15.108 15.539-0.833 0.378-1.387 0.713-1.886 1.113l-0.185 0.169c-3.079 2.493-6.517 4.86-10.133 6.953-3.067 1.847-5.747 3.487-8.387 5.287l-0.3 0.22c-9.82 7.060-18.92 14.48-22.66 27.12-1.972 6.621-5.099 12.362-9.184 17.279-2.182 2.422-3.825 5.509-4.61 8.924-0.301 1.211-0.616 2.123-0.994 3.001-0.381 0.206-0.756 0.574-1.082 0.983-1.799 2.136-3.663 4.050-5.654 5.824-0.355 0.321-0.625 0.615-0.864 0.933l-5.672 5.856c-0.41 0.425-0.769 0.904-1.062 1.425-4.538 6.455-4.138 13.515-3.798 19.275 0.26 4.66 0.34 7.64-1.020 10l-0.14 0.14c-2.302 2.494-3.978 5.601-4.755 9.047-0.3 1.19-0.614 2.089-0.992 2.953l-0.413 0.279c-4.7 4.5-4.98 10.28-5.16 14.12 0.020 0.23 0.031 0.499 0.031 0.77 0 1.324-0.269 2.586-0.755 3.733l0.024-0.063c-2.44 2.14-5.64 2.1-11.060 1.78-6-0.36-13.68-0.78-20.42 4.64-0.609 0.485-1.126 1.053-1.543 1.693-1.417 1.487-2.857 2.907-4.377 4.267l-0.3 0.24-0.16 0.16h-0.12l-0.38 0.42c-1.606 1.85-3.279 3.53-5.060 5.089l-0.48 0.391-0.18 0.16c-0.219 0.206-0.422 0.421-0.611 0.648-1.428 1.659-2.912 3.149-4.496 4.526-0.553 0.335-0.986 0.659-1.376 1.028-2.763 2.453-5.839 4.683-9.126 6.592-3.397 1.993-6.008 3.737-8.522 5.603l-0.389 0.282-0.16 0.14-0.4 0.38-0.7 0.7c-1.8 1.82-3.6 3.66-5.56 5.34-0.497 0.429-0.926 0.916-1.284 1.454q-2.016 2.026-4.016 4.026c-0.914 0.552-1.666 1.285-2.224 2.153-7.556 11.887-1.316 21.027 2.824 27.067 1.052 1.455 2.062 3.112 2.942 4.846z" />
<glyph unicode="&#xe909;" glyph-name="hospital" d="M743.62 667.2v243.8h-463.24v-243.8h-280.38v-682.68h402.28v292.48h219.44v-292.48h402.28v682.68zM316.96 130.82h-219.44v146.18h219.44zM316.96 374.62h-219.44v146.38h219.44zM621.72 374.62h-219.44v146.38h219.44zM634 679.38h-85.42v-85.34h-73.16v85.34h-85.42v73.14h85.34v85.34h73.14v-85.34h85.52zM926.48 130.82h-219.44v146.18h219.44zM926.48 374.62h-219.44v146.38h219.44z" />
<glyph unicode="&#xe90a;" glyph-name="illinois" horiz-adv-x="570" d="M12.2 558.8c-0.403-0.269-0.866-0.499-1.358-0.667-0.958-0.326-2.051-0.591-3.176-0.759-0.447-0.353-0.787-0.673-1.107-1.053-0.342-5.288-1.42-10.219-3.137-14.84 0.047 0.088-0.028-0.139-0.116-0.358l0.014 0.038c-2.082-4.473-3.296-9.71-3.296-15.231 0-6.011 1.44-11.685 3.993-16.698 2.223-3.931 2.023-8.611 1.903-12.351s-0.14-5.46 0.82-6.82c0.984-0.829 1.695-1.955 1.992-3.24 0.961-3.445 1.842-7.696 2.461-12.032 0.758-6.125 2-11.16 3.76-15.945 1.531 0.175 2.946-0.794 3.833-2.141l3.594-5.723c0.556-0.893 0.886-1.977 0.886-3.138 0-1.049-0.269-2.035-0.742-2.892-0.371-0.532-0.835-1.009-1.368-1.398 2.343-9.572 3.603-12.592 12.403-11.552 0.207 0.025 0.446 0.040 0.688 0.040 1.029 0 1.997-0.259 2.844-0.715 15.128-7.984 23.768-21.264 29.608-31.984 4.969-11.374 13.815-20.285 24.832-25.217 0.583-0.258 0.812-0.391 1.031-0.538 12.737-8.325 17.677-20.905 22.457-33.065l1.76-4.44c0.28-0.669 0.442-1.446 0.442-2.261 0-0.056-0.001-0.112-0.002-0.168-0.088-1.553-0.139-3.379-0.139-5.218 0-11.101 1.837-21.772 5.224-31.728 2.835-8.027 4.375-10.047 5.015-10.467 0.3 0.16 2.62 1.060 9.58 6.76 8.3 6.8 17.26 5.56 24.94 3.46 2.548-0.712 4.597-1.414 6.596-2.214 4.904-1.846 8.124-3.026 11.724-1.326 0.744 0.356 1.618 0.564 2.541 0.564 0.739 0 1.447-0.134 2.101-0.378 10.239-3.746 16.659-9.986 19.579-18.806 0.186-0.554 0.294-1.192 0.294-1.855 0-1.467-0.527-2.812-1.402-3.854-0.852-1.031-1.072-1.531 0.008-3.071 0.603-0.92 0.962-2.048 0.962-3.259 0-1.001-0.245-1.944-0.678-2.774l-8.544-16.867c-0.655-1.17-1.655-2.080-2.861-2.605-0.699-0.715-0.599-2.415-0.559-3.435 0.18-3.3 0.46-8.3-3.5-12.26-0.983-1.916-1.688-4.144-1.989-6.499-0.538-2.782-1.229-5.121-2.109-7.365-0.022-5.716-1.242-12.296-7.702-16.936-0.57-0.411-1.238-0.728-1.959-0.911-0.041-0.309-0.241-0.669-0.321-0.949-0.18-0.62-0.36-1.22-0.56-1.82 0.028-0.327 0.044-0.708 0.044-1.092 0-4.564-2.241-8.604-5.683-11.080-4.541-4.268-4.721-7.548-0.761-12.428 2.7-3.44 5.14-6.96 7.6-10.48 5.36-7.74 10.42-15.040 17.54-20.4 1.135-0.862 1.946-2.097 2.253-3.521 1.298-0.534 2.414-1.161 3.421-1.924 0.756-0.603 1.377-1.41 1.771-2.336 0.631-0.769 1.285-1.423 1.991-2.019 1.047-0.499 1.887-1.223 2.491-2.119 0.533-0.799 0.889-1.729 1.011-2.731 0.573-3.481 2.524-6.391 5.259-8.223 0.942 0.942 2.15 1.613 3.51 1.828 10.434 1.344 14.614-4.676 16.194-8.396 0.296-0.686 0.468-1.484 0.468-2.322 0-1.253-0.384-2.416-1.041-3.379-0.392-0.488-0.868-0.919-1.404-1.265 0.117-0.134 0.217-0.294 0.357-0.414 2.637-1.146 5.747-2.139 8.972-2.822 6.328-1.518 13.288-3.158 18.668-8.158 0.269-0.229 0.511-0.471 0.733-0.731 0.194-0.223 0.372-0.458 0.533-0.705 1.655-2.544 3.095-5.184 4.535-7.844 3.68-6.8 6.88-12.68 13.62-16 12.26-6.14 12-17.3 11.7-25.46-0.14-4.66-0.26-9.040 1.64-11.9 1.719-2.335 2.87-5.188 3.194-8.286 0.148-1.19 0.415-2.203 0.796-3.158 0.728-0.437 1.347-1.107 1.795-1.887 0.122-0.206 0.229-0.417 0.322-0.634 1.947-3.945 3.079-8.549 3.079-13.416 0-5.181-1.282-10.063-3.546-14.346-0.157-0.289-0.429-0.683-0.745-1.039l-3.995-4.534c-3.26-4.24-2.7-5.040 2.78-10 3.12-2.78 6.64-6 8-10.58 0.131-0.387 0.223-0.836 0.259-1.301 1.861-7.839 5.521-13.339 11.041-16.839 2.984-1.171 6.438-1.85 10.052-1.85 1.813 0 3.586 0.171 5.304 0.497 0.653 1.081 1.847 1.877 3.225 2.185l0.199 0.007s0.12 0.3 0.24 0.82c0.638 2.376 2.638 4.147 5.092 4.437 0.365 0.821 0.754 1.526 1.212 2.178 10.237 19.645 28.457 20.385 43.137 18.885 1.502-0.158 2.818-0.849 3.777-1.876 1.403-1.457 2.927-2.772 4.564-3.937 11.424-5.088 20.704-9.926 29.661-15.253 6.458-3.674 10.118-3.954 13.938-0.534s4.78 8.2 2.76 16c-0.664 2.439-1.347 4.435-2.135 6.377-1.625 3.551-2.823 8.108-3.215 12.893-0.905 3.122-1.714 6.778-2.274 10.515-0.091 0.699-0.111 0.982-0.111 1.269 0 3.087 2.331 5.629 5.328 5.963 0.987 0.102 2.027 0.182 2.967 0.242 1.492 0.087 2.865 0.251 4.213 0.491 0.847 0.723 2.088 1.51 3.369 2.235l0.218 0.213c0.909 1.704 2.571 2.902 4.53 3.157 0.567 2.518 2.539 4.457 5.030 4.937s0.28 0.146 0.44 0.786c0.617 2.669 2.953 4.635 5.755 4.68l20.005 0.28c1.776 0.462 3.334 1.147 4.749 2.040 2.871 2.44 3.931 5.3 0.111 12.92-2.28 4.143-3.622 9.080-3.622 14.33 0 0.679 0.022 1.353 0.067 2.021 0.516 6.649 2.447 12.836 5.492 18.319 0.668 1.32 2.062 2.465 3.741 2.901 0.329 0.064 0.584 0.169 0.81 0.314 0.349 1.938 1.543 3.546 3.179 4.458 0.072 0.514 0.095 1.092 0.095 1.677s-0.023 1.163-0.067 1.736c-3.361 2.786-5.483 7.023-5.483 11.756 0 3.44 1.121 6.619 3.017 9.191 1.935 4.345 3.25 9.439 3.641 14.788 0.969 7.309 2.009 15.429 7.089 22.589l0.16 0.24c0.291 0.375 0.613 0.704 0.969 0.991 2.831 2.469 2.691 5.149 1.631 11.469-0.92 5.52-2 12.34 2.18 18.66 0.333 0.595 0.739 1.103 1.215 1.536 0.366 0.338 0.773 0.63 1.213 0.869 7.838 4.425 14.146 10.669 18.506 18.182 0.321 0.654 0.542 1.015 0.796 1.348l0.409 0.485c6.82 7.5 11.44 16.56 16.32 26.16 5.1 10 10.54 20.26 18.64 29.040 1.297 3.372 2.576 7.576 3.583 11.885-2.243 8.975-2.163 17.295-1.863 25.375 0.116 1.667 0.183 3.612 0.183 5.573 0 4.214-0.306 8.357-0.898 12.407q-1.245 0.94-2.645 2.22c-0.81 0.469-1.48 1.094-1.987 1.839-0.466 0.705-0.789 1.515-0.929 2.386-0.775 2.667-1.721 4.942-2.879 7.085-2.706 5.63-6.526 13.57-2.146 22.91v0.16c1.84 4 1.76 9 1.7 14.36-0.14 9.3-0.32 20.7 10.3 28.86 1.3 75.36 1.2 152 1.080 226 0 57.6-0.18 117.14 0.4 175.72-0.124 2.078-0.438 4.019-0.927 5.89-0.993 4.73-2.813 13.39 2.407 19.79-1.012 5.473-2.183 10.1-3.613 14.612-3.279 6.707-6.219 15.536-8.145 24.737-2.962 12.491-5.622 23.511-12.522 32.031-14.94 18.46-20.18 38.88-16.96 66.24 0.145 1.68 0.227 3.636 0.227 5.61 0 2.709-0.155 5.382-0.457 8.010q0.030 0.979-0.15 2.259c0 0.42 0 0.82 0 1.24-3.22 1.62-7.020 1.4-12.38 0.94-2.38-0.22-4.72-0.4-7.080-0.38-30.3 0.26-60.52 0.22-90.78 0.18h-242.1q-22 0-44 0c0.66-0.7 1.32-1.4 2-2 0.314-0.216 0.588-0.446 0.84-0.7v0l0.28-0.32c1.343-1.608 2.729-3.057 4.206-4.409l0.534-0.431c2.661-2.177 5.629-4.227 8.758-6.029 2.182-1.231 3.962-2.351 5.822-3.571 0.726-0.345 1.343-0.802 1.856-1.356l0.004-0.004c4.38-4.84 4.22-10.58 4-14.8 0-3.2 0-4.88 0.7-6h0.1c8.66-7.68 18.56-13.42 29.060-19.48l1.060-0.62c0.85-0.351 1.571-0.86 2.156-1.496l0.224-0.244c4-4.86 4-10.36 4-14.36-0.009-0.261-0.014-0.568-0.014-0.875 0-1.144 0.071-2.271 0.207-3.377 1.017-2.738 1.613-6.050 1.613-9.501 0-3.598-0.648-7.045-1.833-10.23-0.014-0.663-0.059-1.67-0.059-2.687s0.045-2.024 0.134-3.018c0.191-4.592 0.451-10.412-3.149-15.872-0.166-0.283-0.331-0.525-0.511-0.754l-0.129-0.146c-0.24-0.276-0.495-0.525-0.769-0.751-1.533-1.386-2.926-2.83-4.216-4.362l-0.415-0.487c-0.168-0.186-0.344-0.357-0.532-0.513-1.56-1.384-2.982-2.787-4.328-4.262l-0.4-0.504-1.3-1.46c-0.634-0.633-1.206-1.326-1.709-2.071-3.911-27.869-20.711-46.009-52.891-56.909l-0.66-0.18c-1.76-0.72-3.5-1.56-5.26-2.4-6.18-2.96-13.18-6.3-21.020-4.98-20.38 3.48-31.78-3.82-37.78-24.3-0.102-0.944-0.409-1.8-0.875-2.545-0.102-0.168-0.215-0.331-0.335-0.488-2.25-3.007-1.99-4.107 2.13-9.467 1.1-1.44 2.2-2.88 3.12-4.36 20.84-20.22 21.88-30 6.24-59.060-0.181-0.459-0.396-0.854-0.652-1.218-0.323-0.461-0.706-0.876-1.137-1.233-1.378-1.216-2.631-2.444-3.818-3.733-0.892-2.536-1.692-5.076-2.492-7.616-5.62-17.86-12-38-37.68-43-1.669-1.038-3.602-1.869-5.658-2.39-1.059-0.262-1.845-0.535-2.599-0.869-1.063-2.542-0.143-5.962 1.397-10.922 2.36-7.8 5.92-19.6-7.44-28.3z" />
<glyph unicode="&#xe90b;" glyph-name="info-seminar" horiz-adv-x="874" d="M436.94 960c-241.36 0-436.94-195.7-436.94-436.96 0-215.62 156.12-394.64 361.5-430.42l75.46-156.62 75.48 156.62c205.4 35.8 361.56 214.8 361.56 430.42 0 241.28-195.64 436.96-437.060 436.96zM522.48 300l-2.8-14h-252l2.8 14h46.9l55.3 261.1h-46.2l2.8 14h117.6c24.5 0 67.2 4.2 89.6 9.1l-60.2-284.2zM466.48 642.3c-40.6 0-66.5 18.2-66.5 47.6 0 37.8 41.3 68 93.1 68 42 0 69.3-18.9 69.3-46.9 0-39.98-39.9-68.68-95.9-68.68z" />
<glyph unicode="&#xe90c;" glyph-name="left-arrow, chevron-thin-left" horiz-adv-x="480" d="M399.4-47.62l-388.8 466.4c-6.592 7.848-10.596 18.061-10.596 29.21s4.004 21.362 10.653 29.28l388.743 466.35c8.399 9.587 20.666 15.608 34.339 15.608 25.173 0 45.58-20.407 45.58-45.58 0-10.775-3.739-20.676-9.989-28.478l-364.41-437.17 364.52-437.22c6.084-7.679 9.76-17.507 9.76-28.193 0-25.184-20.416-45.6-45.6-45.6-13.575 0-25.765 5.932-34.119 15.346z" />
<glyph unicode="&#xe90d;" glyph-name="left-quote" d="M554.783 356.165c0 196.983 104.048 366.742 305.602 491.445l40.71-52.024c-153.9-108.819-246.609-246.809-246.609-375.883 0-20.455 6.743-31.769 18.057-31.769 8.941 0 11.314 2.173 40.71 24.826 27.198 25.026 70.082 38.512 108.619 38.512 106.421 0 194.785-90.537 194.785-201.553 0-117.76-92.934-201.553-224.181-201.553-149.329 0-237.693 113.189-237.693 307.974zM0 356.165c0 196.983 104.248 364.569 307.974 491.245l40.71-52.024c-156.272-106.421-249.007-246.809-249.007-375.883 0-18.257 6.743-31.769 20.455-31.769 6.743 0 9.141 2.373 38.512 25.026 27.198 25.026 70.281 38.512 108.619 38.512 108.619 0 194.785-90.537 194.785-201.553 0-117.76-92.934-201.553-224.181-201.553-149.529 0-237.868 113.189-237.868 307.974z" />
<glyph unicode="&#xe90e;" glyph-name="livechat" d="M955.42 696q68.58-84.3 68.58-183.7t-68.58-183.7q-68.62-84.28-186.28-133.18t-257.14-48.82c-0.639-0.002-1.395-0.003-2.151-0.003-41.856 0-82.836 3.749-122.623 10.928q-94.646-99.525-244.366-131.525c-19.84-3.78-36.2-6.26-49.18-7.4-0.507-0.049-1.096-0.077-1.691-0.077-4.064 0-7.823 1.303-10.883 3.515-3.534 2.376-6.184 5.948-7.374 10.134-1.531 5.848 2.249 12.908 11.409 21.268 1.88 1.88 6.36 6 13.42 12.28s12 10.8 14.58 13.42 7.16 7.5 13.42 14.58c4.981 5.333 9.508 11.22 13.439 17.518 3.121 5.462 7.041 12.482 12.021 21.622 4.375 7.831 8.244 16.926 11.123 26.451q4.257 14.709 8.557 33.869t7.16 41.42q-83.46 51.4-131.18 123.7t-47.68 154q0 99.44 68.58 183.7t186.28 133.18q117.7 48.82 257.14 48.82t257.14-48.84q117.72-48.86 186.28-133.16zM344.26 460.58c13.242 13.234 21.433 31.52 21.433 51.72s-8.191 38.486-21.432 51.72c-13.234 13.242-31.521 21.433-51.72 21.433s-38.486-8.191-51.72-21.432c-13.237-13.236-21.425-31.522-21.425-51.72 0-40.394 32.746-73.14 73.14-73.14 0.002 0 0.003 0 0.005 0 0.325-0.005 0.708-0.008 1.093-0.008 19.855 0 37.794 8.206 50.61 21.411zM563.7 460.58c13.237 13.236 21.424 31.522 21.424 51.72 0 40.389-32.737 73.131-73.123 73.14-40.386-0.023-73.118-32.755-73.141-73.138 0-0.003 0-0.005 0-0.007 0-40.394 32.746-73.14 73.14-73.14 20.198 0 38.484 8.187 51.72 21.424zM783.1 460.58c13.242 13.234 21.433 31.52 21.433 51.72s-8.191 38.486-21.432 51.72c-13.236 13.237-31.522 21.425-51.72 21.425-40.394 0-73.14-32.746-73.14-73.14 0-0.002 0-0.003 0-0.005s0-0.003 0-0.004c0-40.394 32.746-73.14 73.14-73.14 20.198 0 38.484 8.187 51.72 21.424z" />
<glyph unicode="&#xe90f;" glyph-name="location-pin" horiz-adv-x="783" d="M391.52-64s391.54 295.76 391.54 632.48c0 216.22-175.3 391.52-391.54 391.52s-391.52-175.3-391.52-391.52c0-336.72 391.52-632.48 391.52-632.48zM180.7 568.48c0.011 116.424 94.394 210.8 210.82 210.8 116.433 0 210.82-94.387 210.82-210.82s-94.387-210.82-210.82-210.82c-116.433 0-210.82 94.387-210.82 210.82 0 0.007 0 0.014 0 0.021z" />
<glyph unicode="&#xe910;" glyph-name="maryland" d="M0 717l846.72-13.34 23.86-369.78 143.1 6c20.64-9.86 5.32-49.7-2.98-65.68-11.2-21.52-15.1-58-45.88-59.32-0.98 0-3.68 5.66-6.18 6-3.24 0.34-11.8-1.22-15.060-2-10.88-2.4-20.86-7.14-32.12-8.34-15.86-1.7-25.42-2.12-39.36-11.12-8.58-5.54-32.12-31.44-41.88-16.14-8.2 12.86 18.86 25.8 4.78 34.62 1.86 4.6 6 8.94 8.62 12.88-9.080 5-30.36-4.32-27.14 10.7 2.74 12.74 26.42 8 27.040 20.62-10.82 4.78-22.12-0.14-27.86 12.26-3.74 8 4 20.72-2.82 28.32-24.42 27.2-22.58-38.86-22.8-39.040-3.56 2.96-5.32 9.82-8.82 12.18-5.44 3.62-9.44 0.86-15 3.24-12.42 5.34-13.86 11.12-18.16 20.94-3.6 8.24-18.22 24.98-19.1 32.4-1.66 13.84 18.42 11.040 17.76 23.66-20-1.84-2.36 14.4 2.74 18 25.9 18.72 3.42 16.82-13.080 25.34-11.16 5.74-15.16 22.92-8.28 34.32 8 13.14 27.78 7.82 21.84 29.82-5.42 20.1-23.74-6.62-30 12-6.7 20 20.3 13.7 28.38 15.22 8.78 1.66 7.68 1.34 13.040 8.58 4 5.42 10.64 17.12 0.36 19.54-7.8 1.84-10.12-10.56-18-8-4.32 1.4-6.94 13.060-7.38 16.82-0.245 1.784-0.385 3.845-0.385 5.939 0 12.152 4.712 23.204 12.409 31.427 8.176 9.074 15.976 17.974 23.676 26.654 5.46 6 10.88 6.76 16.44 10.48 8.96 6 8.28 3.26 10.44 13.4 1.88 8.78 4.24 38.54-1.82 44.5-13.1 12.9-24.72-7.1-24.56-19.1 0.26-20 0.26-19.24-16.74-32.5-10.58-8.26-27.46-9.14-37.34-18.48-6.5-6.16-4.22-18.42-8.8-23.62-6.8-7.76-9.38 0-16.88-1.64-20.18-4.68-4.34-24.44 10.62-25.38-0.16-10.54-11.24-28 2.98-34.3 1.26-10-5.34-16.2-7.040-24.72 1.792 2.363 3.298 5.080 4.388 8-13.368-9.1-15.148-18.12-17.928-34.040-1.56-8.7-1.7-15.52-6.16-23.56-2.52-4.58-8.62-2.7-8.84-8.9-0.2-4.54 5.18-4.12 6.18-7.080 6-18.24-0.48-33.58 1.38-52.56 1.32-13.5 10-24.48 12.16-38.5 18-2.72 20.2-11.32 24-25.64 4-15.4 0-15.56-2-29.46-1.66-11.86 4.74-18 7.64-28.6 2.6-9.54-2-24.34 8.44-29.82-7.7-3.5-9.080 1.34-14.88 4.14-4.459 2.668-8.218 5.229-11.823 7.982-11.497 8.738-17.697 23.598-29.817 33.778-4.58 3.82-11.66 8.84-17.86 9.44-11.080 1.040-14.28-9.68-23.34-10-11.060-0.38-17.76 36.48-28.28 17.8-2.56 6.32-4.9 14-10.42 19.34-2.68 2.58-14.28 6-15.26 7.36-5.4 7.74 4.44 10.56 1.7 17.66-2.24 5.74-15.68 9.2-20.76 11.66-11.72-10.7-35.88-29.44-51.36-18-12.22 8.98-5.1 24.42 1.42 37.56 4.92 10 13.4 15 19.78 23.28 5.040 6.56 6 13.24 10.18 21.2 4 7.4 8.88 6.38 13.74 11 6.98 6.66 4.5 12.42 7.6 19.72 6.78 15.86 32.72 27.72 29.32 44.14-2.12 10.28-13.020 19.080-23.22 19.48-11.54 0.46-8.66-5-16.7-7.2-12.28-3.34-27.56 2.9-37.3 11.22-12 10.26-10.12 21.38-26.68 25.66-9.8 2.52-23.020-1.62-29.54 4.74-2.54 2.48-7.28 18.28-6 21.8 4 11.62 26.58 19.14 10.16 32.76-12.54 10.42-34 4.58-47.84 7.78-4 0.94-16.58 7.62-17.88 11.56-2.5 7.6 4 9.78 7.44 16.84-2.54 2.62-12.16 6.74-13.32 9.2-3.4 7.22 5.64 10.44 3.18 17.66-3.28 9.58-25.28 0.76-19.66 16.74 2.46 6.98 22.2 4.94 12 17.88-5.040 6.46-23.060 4.1-29.88 3.74-15.86-0.84-13.060-0.9-22 9.32-5.3 6-10.98 15.46-19.66 16.38-7.56 0.8-19.6-6.96-28-8.94-13.86-3.24-27.080-6.54-39.040-15.020 6.92-12-18.44-30.84-29.6-28 0.26 3.7-2.58 7.52-2 11.46-14.72 1.84-23.26-4.2-34.16 4.72-7.42 6-14.58 25.82-28.6 16-12.72-9.040-15.92-37.8-27.58-47.28-15.88-12.92-8.16 6.38-17.1 11.1-17.72 9.36-16.3-15.3-22.36-22-2.98-3.24-12.54-5.1-16.82-7.68-6-3.64-9.5-8.8-14.5-13.080-10.36-8.72-40.34-44.48-51.88-38.68v150.58z" />
<glyph unicode="&#xe911;" glyph-name="michigan" d="M914.64-20.78c2.5 4.36-2.48 20.3 7.020 18.58s10.76 6 10.16 8.9c7.18 2.5 5.3 10.94 5.3 14.66 3.42 1.56 5.46 6.42 7.18 8.28-2.5 4.36-0.16 30.9 1.1 34.18 20.28 9.82 29.64 21.080 31.36 24 1.56 3.28-2.96 16.24-2 19.66 1.1 3.9 7.64 8.9 9.060 11.4 0.32 3.74-3.44 5-3.58 7.5 2.82 4.22 13.12 10.14 17.48 10.14 9.68-1.56 12-9.060 14.98-10.14 5.78 0.62 5.32 9.36 5.78 12.34-0.16 9.36-0.32 40.58 1.7 44.94 5.3 7.020 4 17 2.5 18.26-8.74 4.84-8 17.18-8.42 18.58-9.84-0.62-6.24 3.44-4.54 4.22 0.32 4.84-6.24 23.88-6.72 27.020-4 26.84-10.46 38.56-12.64 43.86-2.759 9.894-4.96 21.679-6.167 33.757-11.153 31.663-26.073 42.263-39.893 44.903-16.7 0.94-15.14-9.68-20.76-11.86-9.36 1.4-10.16-5-10.46-6-1.56 0.78-9.22-0.62-13.12-2.64-8.28-8.12-24.52-46.2-26.24-49.18-12.34-6-19.66-21.86-22.32-24.34-3.42 1.7-6.56 8.74-8.88 10.14-1.72 1.1-5.78-2.34-9.060-4-10.3 5.62-16.24 18-17.020 20.12-2.18 5 1.26 14.52 1.74 18.42-1.26 25.14 23.24 30.6 24.96 31.24 16 12.8 16.4 16.54 16.86 19.8-1.080 14 1.88 27.020 2.82 26.54-0.62 12.18 3.9 11.72 5.78 12.48s2-6.86 4.36-8.58c4.54 3.12 2 6 3.28 8.74 5.038 2.441 8.502 7.42 8.739 13.23-1.099 4.71-3.419 10.49-5.619 10.33-18.58 0.46-3.12 6.56-0.78 7.020 1.88 1.4-1.7 4-2.34 6.86-0.3 2.96 4.22 8.74 4.22 9.52 2.48 10.46-0.46 30-2.2 37.3s-19.66 19.52-22.64 21.7-2.82 6.56-2.64 8.12c9.52 16.22 15.28 14.82 16.7 16.86 1.4 6-6.88 14.52-10.14 18.72s-2.96 12-3.58 15.46c-1.4 3.42-4.54 0.46-8.28 1.4 6.54 7.8-8.28 6-12.18 4.22-18.26 12.96-26.84 7.020-29.66 10.3s-10.3 9.68-12.48 10.3c-2-0.46-15.46 0.16-20.14 0.32-11.88 4.84-8.74 11.24-9.060 14.98-15.3 19.66-28.26 12.64-30.58 10.76s-7.18-1.56-10.14-1.1c-2.96 2.66-14.82 11.080-22.32 11.54-10.92 3.44-7.8 10.76-14.36 10.14s-3.74-5.62-3.74-7.66c-9.84-0.32-22.64-0.62-20.14-2.34s3.76-3.76 2.34-6c-12.64-8.42-20.44-16.54-17.48-30.9 2-14.98 11.080-18.12 13.12-19.040 2.022 1.003 4.546 2.058 7.139 2.967 0.501-2.507 4.721-6.407 6.281-7.187-8.44-8.28-16.86-6.24-26-6.4s-8.74-3.58-10-6c2-8 10.16-8.28 14-9.22 2.605-0.357 4.643-2.395 4.997-4.97 3.763-1.43 6.243-3.79 4.843-5.33-6.4-4.68-10.94 4-13.74 6.56-2.98 2.82-4.84-0.32-2.82-3.12s5.16-10.62 4.2-13.12c-6.4-4-6.7 9.68-6.7 11.4-2.34 5.62-9.68 11.24-12.18 12.64-13.9-5.3-9.84-21.38-9.84-26.68s10-16.54 12.48-21.7c2.5-6.24 3.12-24.82 1.1-29.66-6.4-1.72-3.74 5.78-4.98 8.58 0 22.64-6 24.66-8.42 24.82-1.56-2 0.92-19.82 3.28-22.8s0.78-10.3 2.34-13.58c14.52-7.8 6.24-10 4.84-9.68-1.1 1.72-0.94 5.46-4.36 2.64s-4.84-0.78-5.3 0.16c-1.1 5.62-2.34 11.4-4.22 12.34-2.82-0.94-5.16-10.46-7.18-13.12s-4.7-11.72-7.34-12.48c-3.58 1.72-2.2 6-3.58 7.020-3.76-1.1-5.16-3.28-6.24-2.96-7.66 11.54-4.22 19.36-4 21.7 10.76 15.62 1.56 14.98-0.32 16-0.62 2.66 3.28 7.020 4.84 10.3 1.24 6.24-2 14.68-1.7 16.4 0.92 2.34 3.42 4.68 3.28 6.86-2.64 1.72-8.1-2.82-9.060-3.74s-0.92-5.78-2-10c-5.14-4-6.4-14.52-6.24-19.040-6.4 3.58-9.82-14.98-12.48-18.58-8.12 15.46-10 10.3-10 10.3-6.54-0.32-4.68-7.18-3.74-9.84 8.58-9.84-3.58-9.060-6.56-8.42-3.28 2-3.74 4-2.18 4.52 0.869 0.23 1.499 1.010 1.499 1.936 0 0.807-0.478 1.503-1.167 1.819-10.632 6.405-5.492-6.855-5.172-7.335 3.42-3.44-0.48-21.54-0.18-25.12 7.18-4 4.54-4.52 3.44-6.86-5.3-0.46-5.78 0.16-7.48 2.66-2.82 10.14-7.020 4.36-7.34 2-9.82 1.1-6.24-1.56-6.24-1.56s4 0 5.16-1.1c1.4-4.36 10-5.14 13.58-6 0-6-6.72-5.3-9.68-4.54-14 8.9-12.96 4.54-12.48 2s9.84-14.52 10.14-16c-1.4 0.16-4-0.16-6.72 0 1.88-1.4-0.32-24.98 0.62-29.18 12-4.7-1.24-6.86-3.74-6.86-0.16-6-13.9-33.72-17.64-40.9-12.18-8.42-9.68-12.64-8.1-13.28 2 0 8.44 7.34 10.14 7.020-2.18-2.66-4.68-9.52-5.46-10.94-4 2.34-5.16 1.42-4.22-2.64 13.58-13.74 11.24-38.24 11.4-40.76s-10.62-14-12.48-16.7-2-8.88-1.1-12.18c6.24-6.72 15.76-33.24 17-36 13.58 0.46 8.12-4.54 8.12-4.54s-5-4.98-6.86-6.7c0.32-0.62 11.080-15.76 11.080-15.76l12.96 5.3-0.62-3.9s-9.22-6.7-10.92-7.18c0.46-0.46 9.82-21.24 9.82-21.24l8.74-0.62s1.88-4.36-6.56-5c1.88-1.88 7.18-43.4 7.18-43.4l11.88-3.44s-8.44-3.42-12.18-7.16c-1.88-53.7-14-86.48-18.72-93.66-17.48-19.36-19.36-37.16-19.36-37.16s410.5-0.080 413-0.56zM609.14 494.26c-2 0.76-1.34 6-0.22 6.62 0.371 1.703 0.583 3.66 0.583 5.666 0 0.659-0.023 1.313-0.068 1.961-2.215 0.673-4.615-1.547-5.095-2.427 0.078-0.816 0.122-1.764 0.122-2.723 0-1.865-0.168-3.69-0.49-5.462-4.592-3.815-0.172-3.215 1.068-3.215 2.62-3.28-0.42-4-0.94-4.38s0-3.040 0-4c-3.28 0.18-3.22-0.58-3.46-3.28 0.7-4.28 2.28-3.22 3.3-3.16 1.348 2.897 3.136 5.364 5.31 7.43 0.088 0.876 0.132 1.884 0.132 2.901 0 1.434-0.088 2.847-0.259 4.235zM544.6 528.52c-1.057 1.942-3.083 3.238-5.411 3.238-0.72 0-1.41-0.124-2.052-0.351-4.397-7.727 6.763-14.427 6.763-14.427 4.1 0.64 0.94 9.020 0.7 11.54zM528.86 506.66s3.66 2.4 2 4.88c-0.88 0.38-6.64 0.26-4.6-3.8 0.66-1.54 1.4-1.74 2.6-1.060zM557.8 596.8s8.68 3.28 3.28 9.36c-2.12 0.5-10.3-0.44-3.28-9.34zM592.22 610s10.3 9.84 8.68 14c-2.58 0.94-5.16-0.92-5.16 2.1s1.64 11-3.28 13.34c-1.64-0.7-4.44-6.32-3.52-8.9 0 0-7.74-0.92-3.5-15.22 1.16-3.98 1.16-4.68 6.78-5.32zM596 647.64s7.26-2.58 3.74 4.92-8.46-8.44-3.74-4.92zM551.28 642.72c0.081 0.255 0.128 0.548 0.128 0.852 0 1.602-1.298 2.9-2.9 2.9-0.094 0-0.188-0.005-0.28-0.013-1.668-1.159-0.488-3.739 3.012-3.739zM576.1 633.12s4.9-1.16 3.040 4.22c-3.14 3.040-9.14 0.46-3.14-4.22zM700.2 664.48s4.44-0.7 2.82 3.28c-2.38 2.82-7.54 2.12-2.86-3.28zM723.84 644.1s9.14 0.94 11.020 5.38c-3.28 4.22-8.2 5.16-12.42 8.44-4.92 1.4-12 2.1-13.58 1.4s5.58-11.68 14.94-15.2zM703.16 695.54c4.7 1.56 6.56-1.88 9.060-5 3.42-1.88 11.24 2.5 12.48 2.82s3.76-5 6.88-4.68 2.18 0.94 5.3 3.76c3.74 0.92 10.92-3.44 15.6-3.44 4.68 1.26 7.18 4.68 9.68 5.3 2.18 0.3 6.56-7.18 8.42-5.62s3.12 5.3 5 5 3.74-3.12 6.86-4.36c4.7 1.56 3.44 8.12 0 10-10.3 1.88-17.8 10.3-19.060 11.54 0 1.56 4 5.62 3.44 7.18-1.24 0-4.36 0.94-8.74 1.56-0.94 1.56-7.18 3.44-12.48 5.3-10.3 0.92 4 6.86 7.8 7.5 3.12 0.92 3.12 6.56 1.56 6.24s-0.62 9.68-0.32 11.86c-0.3 1.88-6.54 8.74-8.74 12.8-0.62 3.44 7.48 12.18 6.88 14.98-0.64 2.18-6.56 4-14.38 5.62-12.18-6.86-4.68-11.86-3.42-13.1 0.92-0.94 12.48-18.72 14.36-22.8-6.24-10.6-7.18-1.56-7.5 3.12-0.92 3.44-13.42 24.66-15.28 26.84-1.56 1.88-3.76-0.32-4.7-4.68-8.1 0.62-7.8-2.82-7.8-6.86-6.272-2.020-11.638-4.343-16.726-7.112 0.186 18.052-8.234 13.052-19.494 5.872s-11.88-1.88-11.88 1.26c-1.56 0.32-20.92-0.32-24.98 4-2.18 8.12-0.3 24 2.18 32.48 6.24 12.18 2.82 12.8-1.26 12.8-4.36-5-17.48-2.5-23.4-3.12-6-0.92-28.72-13.42-34.34-15.3s-39.34-1.24-61.5-4.36c-22.8 1.26-19.36-3.12-20.92-6.86s-17.48-11.86-23.42-14.68c-2.82 0.32-6.86-2.18-10.6-8.12-6.86-2.48-11.24-15.3-15.62-17.18-5-0.32-14.36 11.54-16 11.54s-4-6.86-6.24-10.6c-2.18-1.88-9.36 1.26-12.8 2.5-2.82 1.88-1.88 8.74-5.3 11.86-4 1.88-12.48-5.3-28.1-10.3-20.28-3.12-20.28 10.62-20.6 15.62-1.88 5.3-10.6 11.24-14.98 11.86 5.62 10.3-6.86 13.1-10.3 16.22 1.88 13.42-8.44 9.68-12.8 11.24-2.18 2.18-3.74 8.1-4.68 10.92-2.82 1.88-11.24 0.32-9.68-1.56s1.88-4.68-0.32-5.3c-3.12 1.56-4.36 6.56-6.56 7.8-3.12-10.62-6.86-11.54-8.1-10.94s3.12 9.36 3.42 12.18c-2.18 2.82-31.22 0.94-33.4 0.32s0.94-3.12-2.82-7.5c-6.86-6.24-4 4-2.82 5.62 4.36 3.12 11.54 7.5 12.8 10.94-4.36 2.82-8.1-2.18-11.86-4-3.44-0.32-9.060-7.18-11.24-10.92-4.849-2.059-8.504-6.12-9.969-11.117-3.771-7.623-5.651-8.563-6.591-6.363-0.92 15.6 3.76 26.54 5 30.9-1.26 7.8 5.62 8.44 9.060 13.12 0.94 9.060 6 10.3 9.060 12.48 0.62 8.44 6 10 5.3 12.48-0.62 2.18 0.92 5.3 2.18 6.86s6 1.88 9.68 4.36c5 9.060 22.48 18.72 23.42 20.3 0 1.56-0.94 4.36 1.24 6s8.44-0.32 12.8 0.3c14.38 3.44 7.2 10.3 5 11.86-2.4 0.9-27.7 1.22-32.7 1.22s-17.48-9.68-19.66-10.94c-4.075-0.79-8.761-1.241-13.552-1.241-0.157 0-0.315 0-0.472 0.001-8.456-5.62-23.516-23.1-28.436-25.82-5 0-18.12-10.3-23.74-16.22-5.3-2.82-13.42-7.8-14-12.48s-6.24-12.8-8.44-15.3c-2.5 0.62-11.86 0-18.1-0.62-14-20.6-39.66-25.6-48-26-6.033 1.577-12.96 2.482-20.098 2.482-2.486 0-4.946-0.11-7.376-0.325-17.806-8.718-25.906-23.978-40.266-29.018-24.78-0.64-34.76-8.12-41.060-11.86-0.92-6.86 13.74-11.24 20.92-14 9.36 2.5 14.36-9.060 14.68-14.98-3.74-4.68-1.88-11.86 3.12-18.42 10-0.62 32.16-8.74 39.34-13.12 11.54 0.94 64-18.72 70.86-23.1 15.62 3.42 33.72-16 35.6-17.18s10.94-1.24 21.22-1.56c9.060-2.18 26.84-2.82 48.4-0.94 24 5.62 25.28-11.24 26.22-18.1-6-9.68-4.36-11.86-1.24-18.42 34.96 6.24 38.4-18.42 39.020-21.54-6-6-6.56-11.24-3.42-14.98s3.42-6.56 4.36-13.74c-15.3-20.92-5.62-21.86-0.94-22.16 9.36 5 16.22 4.68 18.72 2.82 2.5-11.86-6.86-21.86-10.3-28.72 7.18-25.6 16.22-17.8 19.36-12.48 0 7.5 8.74 16 13.12 19.36 2.5 3.12 4.68 10.62 6.24 16.22 14 14.98 10.62 19.040 11.86 25.6 2.82 6 6.24 12.18 4.68 16.54 9.060 3.12 6.86 11.54 8.44 13.74s16.22 13.74 16.86 18.1c0 0.94-0.32 12.48-0.32 14 0.32 1.56 5.62 3.12 6.86 6.56 0.62 2.18 4 11.86 6 12.48 2.18 0 2.82-8.42 2.18-12.8-6-7.18-3.76-20-3.42-22.8 1.24-4.36 12.18-1.24 14.36 0-0.62 2.5 4.68 11.24 7.5 13.42 0.92 2.5 1.24 13.42 2.18 14.36 2.82-0.92 8.74-6.24 12.8-6.24 5 1.88 9.36 12.8 13.74 11.86 2.626-0.96 4.501-3.36 4.679-6.22-2.353-2.155-4.348-4.628-5.922-7.374-0.697-5.146 1.803-7.006-0.397-8.586-6 0.32-6.86-3.74-8.1-7.5-2.2-2.82-1.56-6.86-1.56-8.1-0.62-1.26-3.76 0-6.56-0.62 4-6.24 5.62-8.42 9.68-9.060-3.12 5.3 2.82 7.5 5.62 9.060-2.82 6.56 2.18 7.8 4.36 8.44 1.24 2.18 0.62 3.12 1.56 6 1.88 0.94 7.18 0.62 9.060 0.62 0 0.94 3.12 4.36 4.36 6 5-0.32 3.76 1.24 8.44 8.1-0.94 21.54 10.92 19.66 12.48 21.22 0 1.88 1.56 4 4.36 1.88 2.82-4 8.12 2.5 9.36 2.82s8.74 0.62 9.060 1.26c3.76 4 9.36 4 10.62 2.5-4.68-5.62-4-6.24 0.3-8.44 6.86-0.32 9.38 5 12.8 6.56 3.44 0.94 14.68 0 20 0.94 5.897 5.219 10.88 11.298 14.794 18.072 7.366 5.348 19.246 4.708 23.606 3.788 2.82-5 21.54-4.68 26-3.76 2.82-0.62 6.24-4.36 10.6-6 21.86 1.56 21.24-3.12 19.060-4.36-16 1.56-3.12-0.32-10.94-2.5 8.12-2.82 20.92-16.54 27.78-21.86 12.82-3.76 9.060 4 7.2 6-3.12 5.62-3.12 17.8-0.32 18.72 2.82 0.62 1.88 5.3-0.3 8.1 1.24 4.68 6.56 4 6.56 4 0.572-1.748 2.189-2.988 4.095-2.988 0.647 0 1.261 0.143 1.812 0.399zM448.54 770.16c-5.78-3.28-0.46-15.62 0.78-15.76s3.58 4.54 3.58 4.54c7.5 8.58 0 9.68-4.36 11.22zM725.16 681.8s8.58-2 8.74-0.94-5.46 5.3-5.14 6.56-5.8-1.080-3.62-5.6zM791.96 691c0.62-0.46 6.54-6 7.8-5.78 2.494 1.434 4.616 3.199 6.393 5.268 5.647 1.592 10.627-3.088 20.147-5.428 9.52-2.64 6.54 3.58 6.72 5.46 1.812 2.286 3.039 5.112 3.412 8.201-5.452-0.081-5.772 1.479-9.212 3.499 0.16 9.36-10 10.3-13.28 10.94-5.62 2.5-10.14-1.72-6.24-2.96 6.4-1.4 4-6 3.12-7.18-3.9 0.62-12.34-6.4-13.74-9.22-3.76 0.16-3.76 3.58-4.7 4.68-0.62-0.94-2.96-3.76-4.22-5.16-0.48-0.92 3.12-1.88 3.12-1.88z" />
<glyph unicode="&#xe912;" glyph-name="minus" d="M0 482.4v-68.8h1024v68.8z" />
<glyph unicode="&#xe913;" glyph-name="more-information" horiz-adv-x="937" d="M77.88-64h781.060c43.133 0 78.1 34.967 78.1 78.1v451.9c-0.025 21.041-8.285 40.147-21.731 54.273l-99.769 104.967v170.76c0 23.969-19.431 43.4-43.4 43.4h-160.14l-94.88 99.6c-12.285 12.954-29.621 21.014-48.839 21.014-17.946 0-34.25-7.028-46.31-18.482q-1.271-1.213-2.511-2.513l-94.78-99.7h-160c0 0 0 0 0 0-23.941 0-43.354-19.385-43.4-43.316v-170.644l-99.58-104.98c-13.405-14.099-21.662-33.202-21.7-54.233v-452.147c0.057-43.013 34.876-77.875 77.868-78zM208 752.54h520.78v-384l-228.58-182.7c-8.587-6.949-19.642-11.156-31.68-11.156s-23.093 4.207-31.775 11.23l-228.745 185.525zM478.18 388h-169.78c-15.712 2.49-27.582 15.939-27.582 32.16s11.869 29.67 27.397 32.136l169.965 0.024c1.49 0.242 3.208 0.38 4.958 0.38 17.971 0 32.54-14.569 32.54-32.54s-14.569-32.54-32.54-32.54c-1.75 0-3.468 0.138-5.143 0.404zM276.18 535.54c0 17.971 14.569 32.54 32.54 32.54h320c1.49 0.242 3.208 0.38 4.958 0.38 17.971 0 32.54-14.569 32.54-32.54s-14.569-32.54-32.54-32.54c-1.75 0-3.468 0.138-5.143 0.404l-320.135-0.024c-17.576 0.185-31.8 14.276-32.199 31.783zM276.18 650.86c0 17.971 14.569 32.54 32.54 32.54h320c1.49 0.242 3.208 0.38 4.958 0.38 17.971 0 32.54-14.569 32.54-32.54s-14.569-32.54-32.54-32.54c-1.75 0-3.468 0.138-5.143 0.404l-320.135-0.024c-17.569 0.185-31.789 14.265-32.199 31.762z" />
<glyph unicode="&#xe914;" glyph-name="new-jersey" horiz-adv-x="527" d="M455.48 557.76c-13.64 2.98-30.14 8.28-36.86 22.8-4.78 10.32-3.42 22.52 4.16 37.24 8.42 23.52 26.38 37.5 42.26 49.84 3.5 2.72 6.86 5.38 10.12 8 3.784 3.088 7.182 6.208 10.392 9.511l7.208 19.429 26.32 71.060c0.521 1.339 1.195 2.496 2.020 3.526 3.16 4.214 6.76 10.334 5.84 15.334-1.020 5.54-7.5 10.64-12.76 14-1.365 0.858-2.522 1.902-3.478 3.111-1.242 0.549-3.102 1.129-4.402 1.509-6.532 1.573-12.199 4.641-16.833 8.829l0.033-0.029c-1.84 1.58-3.62 3.28-5.4 4.98-1.662 1.661-3.409 3.237-5.234 4.721-0.827 0.49-1.429 0.894-1.995 1.341-1.076 0.794-2.031 1.723-2.847 2.766-1.671 0.98-3.578 1.749-5.594 2.241-5.211 1.531-12.151 3.591-17.871 9.451l-0.34 0.38c-6.22 4.5-12.82 8.56-19.78 12.84-4.9 3.020-9.8 6-14.6 9.22-1.261 0.853-2.337 1.859-3.237 3.009-1.263 0.551-3.103 1.091-4.263 1.451-6.321 1.513-11.822 4.402-16.39 8.342l-0.63 0.518c-1.72 1.5-3.38 3.080-5.020 4.68-1.748 1.774-3.587 3.442-5.516 5.003-0.758 0.444-1.301 0.802-1.812 1.198-1.038 0.802-1.96 1.737-2.745 2.781-1.692 0.983-3.62 1.747-5.658 2.228-5.209 1.53-12.149 3.61-17.869 9.51-0.753 0.783-1.415 1.662-1.965 2.615-2.213 2.354-4.889 4.148-7.89 5.277-11.268 0.336-20.948 6.258-26.467 15.054-6.358 6.134-14.078 10.774-22.218 15.714-3.080 1.86-6.14 3.72-9.14 5.66-2.036 0.561-3.796 1.55-5.251 2.87-1.694 1.665-3.767 2.971-6.074 3.776-0.919 0.296-1.844 0.446-2.804 0.446-1.192 0-2.33-0.232-3.371-0.653-1.574-0.588-2.986-1.343-4.278-2.258l-0.281-0.261c-3.44-2.98-6.62-6.18-9.78-9.42-1.346-2.037-3.163-3.662-5.302-4.744-0.524-0.265-1.072-0.501-1.636-0.704-6.102-2.272-7.302-5.672-9.222-17.752-1.38-8.6-2.94-18.32-9.54-26.88l-0.54-0.66c-4-5.3-7.4-10.96-10.86-16.58-3.82-6.22-7.66-12.42-12-18.3-10.484-16.969-24.414-30.842-40.902-40.953-0.964-0.574-1.469-0.848-1.991-1.091-5.327-3.436-11.027-8.156-12.087-13.156-0.82-4.14 1.66-9.16 4.32-13.12 5.862-5.744 10.775-12.427 14.504-19.811 0.937-2.018 1.395-3.873 1.456-5.827l0.001-3.722c0.004-0.117 0.006-0.254 0.006-0.392 0-1.987-0.429-3.874-1.2-5.572-3.979-8.253-9.229-15.35-15.567-21.3-0.574-0.574-1.156-1.067-1.777-1.508l-8.641-8.728c-0.436-0.549-0.887-1.038-1.373-1.493-4.207-4.007-8.347-8.007-12.227-12.347-0.26-0.28-0.52-0.54-0.8-0.8-0.913-1.339-1.458-2.992-1.458-4.773 0-0.284 0.014-0.565 0.041-0.842 0.297-2.76 0.468-6.004 0.468-9.287 0-1.73-0.047-3.449-0.141-5.155 0.010-0.623-0.090-1.483-0.13-2.343-0.16-2.94-0.3-5.88-0.5-8.8-1.86-26.44-1.64-37.38 23.66-42.46 5.179-1.073 9.242-4.93 10.597-9.903 1.717-6.25 2.691-13.316 2.691-20.609 0-0.418-0.003-0.835-0.010-1.251 0.139-2.146 0.218-4.727 0.218-7.327s-0.079-5.181-0.234-7.742c-0.263-7.008-0.503-13.648 1.237-19.248 2.581-0.532 5.548-0.836 8.585-0.836 1.47 0 2.923 0.071 4.357 0.211 9.518 0.286 22.558 0.766 33.958-8.274 0.751-0.487 1.405-1.008 2.004-1.584 4.416-4.156 8.716-8.416 12.836-12.836 6.22-5.78 8.3-12.88 9.86-18.14 0.514-2.037 1.144-3.795 1.919-5.471l0.221-0.089c6.3-6 8.44-13.32 10-18.68 0.592-2.144 1.274-3.971 2.093-5.721l0.267-0.099c6.24-5.9 8.36-13.16 10-18.44 0.522-1.999 1.103-3.683 1.794-5.309 1.166-0.753 2.223-1.945 3.052-3.292 6.654-11.039 8.774-20.419 6.934-28.739-0.171-1.213-0.395-2.268-0.682-3.297-1.117-2.987-2.788-5.707-4.896-8.023-5.802-6.5-14.342-9.58-21.062-11.98-3.269-1.077-5.974-2.187-8.587-3.459-5.362-4.433-11.815-8.886-18.574-12.876-7.070-4.101-12.432-7.754-17.528-11.733-1.391-1.313-3.071-2.913-4.731-4.533s-3.48-3.36-5.28-5l-0.32-0.4c-6-6.96-13.62-9.18-19.18-10.82-2.134-0.557-3.976-1.24-5.729-2.082-1.284-1.493-3.106-2.723-5.155-3.487-4.917-2.032-6.777-6.032-10.357-15.572-2.134-6.211-4.703-11.569-7.8-16.566-1.101-1.629-2.84-3.214-4.886-4.298-2.356-1.715-4.969-3.402-7.683-4.933-2.877-1.523-5.020-2.99-6.981-4.665-8.23-9.019-19.53-9.739-27.010-10.219-0.011 0-0.025 0-0.039 0-2.716 0-5.349-0.358-7.853-1.028-7.488-8.152-17.508-9.692-24.308-10.732-2.605-0.309-4.962-0.836-7.222-1.574l-5.338-9.646-50.92-88.18c2.467-6.009 3.899-12.985 3.899-20.294 0-1.946-0.102-3.868-0.3-5.762 0.82-0.503 1.52-1.323 2.4-1.983 0.811-0.596 1.519-1.254 2.146-1.983 3.914-4.617 7.554-9.557 11.194-14.517 7.12-9.66 13.84-18.78 22-24.44 15.22-10.84 28.16-23.98 40.66-36.84 24-24.56 46.76-47.76 83.5-50.92 22.22-2 38.98-5.72 48.66-18 10.84-13.9 8.76-33.28 4.92-57.18-1.437-7.087-3.628-13.369-6.542-19.229-1.711-3.309-3.313-7.679-4.38-12.254 22.842 23.183 37.482 53.103 52.882 84.643 21.66 44.3 44 90 91.38 119.16 0.42 2 0.76 5.060 0.98 7.1 0.3 2.8 0.62 5.54 1.080 8 3.42 18.14 14.58 32 30.6 38 24.2 8.98 37.86 28.7 45.66 66 14 66.82 34.7 138 63.2 217.54 1.496 4.856 2.537 10.498 2.909 16.322l0.471 4.598c5.78 49.52 5.78 49.52-41.84 59.98z" />
<glyph unicode="&#xe915;" glyph-name="new-york" d="M1003.18 130.66c-0.269 0.374-0.499 0.804-0.668 1.262-0.318 0.911-0.683 1.664-1.121 2.367-1.58-2.395-4.094-4.021-6.998-4.423-0.351-0.039-0.696-0.058-1.046-0.058-1.912 0-3.693 0.564-5.185 1.534-1.183-1.162-2.383-2.382-3.623-3.622-6.94-7-14.86-14.9-28.82-14-7.618 0.447-16.527 0.701-25.495 0.701-23.236 0-46.074-1.709-68.393-5.008-11.792-1.693-26.592-3.693-38.212-13.173-4.76-3.9-10.72-8-18.82-8-0.045-0.001-0.099-0.002-0.152-0.002-0.839 0-1.633 0.193-2.339 0.536-2.256 0.927-4.016 2.753-4.849 5.026-0.22 0.78-0.336 1.607-0.336 2.461 0 1.915 0.582 3.695 1.578 5.172l0.359 0.687c6.42 11.3 14 22.92 25.46 30.16-3.366 2.414-5.797 5.946-6.757 10.044-2.023 8.896 3.977 12.876 7.197 15.016l0.74 0.48c2.061 2.036 4.684 3.508 7.615 4.16 0.999 0.248 1.771 0.529 2.507 0.874l0.338 0.325c6.22 4.8 6 5.14 4 7.78-0.109 0.147-0.221 0.317-0.325 0.492-7.395 9.008-6.235 18.868-3.675 28.268 0.5 7.54 0.44 15.32 0.38 22.86 0 6.32-0.1 12.66 0.16 18.98 0.024 0.602 0.139 1.169 0.332 1.699 1.22 3.922 1.948 8.479 1.987 13.201 0 0.88 0.1 1.74 0.16 2.6l-0.28 9.42c-0.001 0.029-0.001 0.064-0.001 0.099 0 1.9 0.96 3.576 2.422 4.569 0.243 2.679 0.37 5.783 0.37 8.917 0 2.186-0.062 4.358-0.184 6.514-0.306 8.481-0.606 17.561 2.214 26.761-0.535 0.686-0.916 1.518-1.075 2.427l-0.345 2.213c-1 6.38-2.26 14.28 2.42 21.78l24 82c0.339 1.127 0.989 2.074 1.85 2.772 0.59 0.488 0.69 2.008 0.79 4.248-0.008 0.205-0.012 0.447-0.012 0.689 0 3.123 0.743 6.073 2.063 8.681-0.225 0.246-0.37 0.66-0.464 1.093-2.427 14.377-2.007 28.737-1.607 42.617 0.16 5.66 0.32 11.32 0.3 16.98 0 0.014 0 0.031 0 0.048 0 0.56 0.080 1.101 0.23 1.612 7.99 27.14 5.13 55.22 1.69 79.5l-2.16 6c-0.755-0.16-1.424-0.423-2.033-0.777-0.334-0.776-0.847-1.443-1.479-1.976-0.997-2.28-3.030-3.935-5.483-4.38-0.269-0.030-0.53-0.044-0.793-0.044-2.506 0-4.729 1.209-6.118 3.076-3.774 4.24-6.934 11.38-0.674 21.3v0c1.175 2.691 1.859 5.827 1.859 9.123 0 2.205-0.306 4.339-0.878 6.361l-0.080-0.324c-2.699-5.546-4.953-12.006-6.433-18.756-0.223-1.076-0.388-1.51-0.602-1.913-1.248-2.196-2.572-4.112-4.043-5.902-0.443-0.589-0.943-1.229-1.403-1.929-0.821-1.095-1.562-2.336-2.167-3.653-1.273-2.707-2.473-5.087-3.713-7.487-0.682-1.090-1.351-2.364-1.926-3.689l-2.354-4.711c-0.97-1.68-2.029-3.134-3.222-4.465-0.483-0.561-1.095-1.038-1.785-1.38-0.766-0.285-1.611-0.441-2.493-0.441s-1.728 0.156-2.511 0.442c-0.399 0.052-0.803 0.163-1.186 0.317-1.083 0.427-4.583 2.287-3.063 7.627-0.027-0.205-0.042-0.441-0.042-0.681 0-2.333 1.432-4.332 3.465-5.165-2.001 0.854-3.405 2.84-3.405 5.154 0 0.605 0.096 1.187 0.273 1.732 1.032 2.912 2.226 5.44 3.64 7.823l2.129 3.237c1.24 1.88 2.5 3.74 3.62 5.7 1.028 2.014 2.050 3.709 3.177 5.327l2.103 2.493c1.3 1.46 2.46 2.86 3.54 4.3 0.578 1.034 1.063 2.231 1.396 3.491 2.464 8.689 5.164 18.209 12.024 26.109 0.18 0.22 0.26 0.48 0.42 0.72-0.117 1.339-0.183 2.897-0.183 4.47s0.067 3.131 0.197 4.671c0.266 4.479 0.526 8.539-1.474 11.799-0.322 0.512-0.571 1.107-0.713 1.742-2.367 11.138-1.027 22.318 4.113 34.258 6.56 15.22 11.88 30.26 5.2 46.86-0.989 2.888-1.56 6.215-1.56 9.676 0 1.462 0.102 2.899 0.299 4.307 0.261 3.978 0.481 7.598-0.979 10.578-6.2 5.64-5.26 12.7-4.64 17.44 0.23 1.28 0.361 2.753 0.361 4.257 0 0.078 0 0.157-0.001 0.235-0.004 0.070-0.007 0.165-0.007 0.261 0 1.64 0.702 3.116 1.822 4.143 1.864 1.704 2.144 4.004 2.484 8.184 0.050 4.456 1.23 8.625 3.266 12.249 2.133 5.907 3.569 12.884 3.927 20.144-0.496 0.355-1.080 0.489-1.686 0.546q-103.128 0.382-206.228 0.522c-4.88-0.24-8.4-0.72-11.2-2.5-5.46-3.48-11.1-6.74-16.76-10-11.84-6.82-23.020-13.26-32.46-21.74-4.52-4-9.28-8-14-11.88-16.94-13.72-32.76-26.7-38.94-47.88-1.464-5.097-5.334-9.054-10.27-10.61-8.29-2.55-14.83-8.37-21.75-14.51-9.26-8.22-18.84-16.72-33.38-18.72-1.039-0.34-1.876-1.053-2.369-1.978-1.6-2.558-2.543-5.64-2.543-8.942 0-1.146 0.114-2.266 0.33-3.348 0.058-0.424 0.234-0.904 0.491-1.329l3.050 0.477c1.236 0.242 2.657 0.381 4.11 0.381 0.581 0 1.156-0.022 1.726-0.066 6.611-0.525 12.477-3.657 16.579-8.366 3.225-3.69 6.525-8.030 4.965-12.35-0.882-2.344-2.944-4.053-5.443-4.416-2.977-0.504-3.597-1.464-4.717-7.364-0.94-4.92-2.36-12.32-10.56-14.62-1.194-0.216-2.249-0.702-3.136-1.392 0.116-0.408 1.236-2.768 1.896-4.188l0.86-1.84c1.165-2.459 2.271-4.47 3.478-6.413 1.593-2.478 3.218-5.651 4.544-8.976 3.637-10.091 3.317-18.691-0.763-25.231-2.7-4.34-8.4-9.78-20.2-11.1-12.84-1.42-23.3-7.080-34.96-18.88-22.38-22.64-48-31.48-78.32-27.060-18.94 2.76-34.76 1.24-48.32-4.68-3.028-1.505-6.595-2.386-10.368-2.386-6.266 0-11.965 2.43-16.205 6.398-24.367 20.748-54.627 19.988-83.987 19.328-4.36-0.1-8.7-0.2-13-0.24-16.18-0.14-32.24-4.52-49.24-9.14-8.88-2.42-18-4.92-27.2-6.74-6.92-1.38-8.6-3.74-8.22-11.52s1.66-12.3 7.82-16.3c8.36-5.44 14.32-20.72 16.52-33.46 1.16-6.74 2.32-19.080-2.98-26-2.12-2.78-4.18-5.66-6.24-8.56-10.34-14.48-21.040-29.46-40.82-35.040-5.076-1.738-9.462-4.248-13.264-7.432q-21.076-15.388-42.296-30.628l-15.060-10.9c-0.894-1.478-1.817-3.251-2.633-5.081 2.773-6.739 2.033-13.679 1.373-19.299-0.56-4.72-1.040-8.9 0.16-12.26 4.74-1.7 10-1.38 15.52-1.040 2.42 0.14 4.82 0.3 7.22 0.3v0q113.54 0 227.060-0.1 160 0 319.82-0.2v0c2 0 4 0.2 6.14 0.4 8.2 0.76 19.32 1.84 26.88-8.88 5.48-2.9 7.4-8 8.86-11.84 0.505-1.431 1.011-2.606 1.583-3.742 0.597-0.538 1.597-0.658 4.537-0.718 0.339 0.023 0.734 0.036 1.133 0.036 3.587 0 6.925-1.066 9.714-2.898 0.333-0.258 0.682-0.594 0.984-0.968 1.091-1.257 2.235-2.382 3.462-3.413 4.427-4.038 12.567-11.278 5.707-23.118 4.6-7.84 4.46-14.38-0.38-19.48 1.849-1.408 3.454-2.994 4.837-4.762 0.709-0.916 1.134-1.991 1.203-3.162 4.001-9.255 12.381-12.475 22.001-16.175 2.76-1.040 5.52-2.1 8.18-3.3 0.839-0.195 1.571-0.564 2.19-1.068 2.171-1.812 4.131-3.716 5.941-5.756 0.496-0.555 0.861-1.138 1.115-1.777 0.739-1.182 1.242-2.537 1.429-3.99 1.925-0.691 3.59-1.588 5.066-2.719 0.334-0.119 0.657-0.294 0.956-0.501 1.523-1.029 3.143-1.989 4.743-2.989 4.405-2.478 8.21-5.282 11.632-8.49 0.335-0.335 0.654-0.749 0.913-1.202 0.455-0.848 0.855-1.188 2.175-1.188 0 0 0 0 0.001 0 0.411 0 0.811-0.044 1.197-0.127 4.263-1.115 7.907-3.474 10.598-6.663l0.125-0.151c0.5-0.2 1.22-0.42 1.82-0.6 2.941-0.671 5.477-2.121 7.459-4.119 1.324-1.013 2.499-2.048 3.598-3.158l0.683-0.663c0.598-0.357 1.102-0.804 1.511-1.328 0.648-0.373 1.388-0.669 2.169-0.86 2.912-0.675 5.37-2.080 7.3-4.012 1.44-0.92 2.9-1.82 4.36-2.72 3.943-2.34 7.245-4.558 10.422-6.936-0.020 0.001 0.228-0.228 0.454-0.479 0.504-0.225 1.244-0.445 1.844-0.625 2.922-0.647 5.448-2.054 7.443-4.003 1.285-0.978 2.427-1.98 3.495-3.055l0.842-0.782c0.573-0.356 1.057-0.795 1.451-1.307 0.655-0.377 1.401-0.672 2.19-0.861 2.894-0.689 5.336-2.092 7.26-4.012 5.1-3.52 8.12-7.64 8.98-12.28 0.113-0.773 0.178-1.665 0.178-2.573 0-4.477-1.577-8.585-4.205-11.801l-13.454-37.207c-0.199-0.443-0.433-0.824-0.709-1.171 5.129-3.989 10.189-3.069 18.429-0.989 4.052 1.289 8.712 2.031 13.545 2.031 0.596 0 1.189-0.011 1.78-0.034 15.915-1.277 32.195 1.903 52.835 10.323 16.987 6.939 36.77 12.288 57.353 15.132 29.787 4.408 66.667 11.968 99.307 32.768l1.42 0.84-2-0.78c-4.32-1.8-12.62-5.26-18.78 3.38z" />
<glyph unicode="&#xe916;" glyph-name="ohio" horiz-adv-x="954" d="M474.78 814c-8.16 5.040-10.58 5.64-13.6 3.32-29.64-22.7-51.52 0.28-64.6 14-16.7 17.54-36.9 29.3-65.78 38.4l-4.48 1.38c-13.84 4.22-29.36 9.080-39.16 24.16-0.42 0.66-0.9 1.2-1.3 2-3.22 2.3-7 2.64-15.76-0.78-20.86-7.82-41.54-6.84-61.56-5.88-4.811 0.35-10.422 0.549-16.080 0.549s-11.27-0.199-16.828-0.591c-12.672-0.198-25.392-0.098-38.172 0.042-20 0.18-40.72 0.36-60.92-0.8-9.86-6.92-22-9.4-35.34-7.1-12.34 2.12-21.88 0.84-28.64-3.58-0.34-0.22-0.76-0.34-1.080-0.58-2.118-1.609-3.928-3.477-5.427-5.582-0.213-3.738-0.433-7.498-0.733-11.458-4-54-3.48-109.26-2.9-162.66 0.34-31.18 0.7-63.4 0.12-95.16v-374.34q0-27.14 0-54.28c0-0.014 0-0.030 0-0.046 0-0.52-0.044-1.031-0.128-1.527-1.073-7.486-1.913-14.986-2.413-22.526 0.602-0.974 1.262-1.818 2.004-2.584 1.19 0.61 2.598 0.965 4.090 0.965 2.129 0 4.088-0.723 5.647-1.936 18.839-8.265 34.299-12.145 48.939-12.125 2.91 0.679 6.28 1.112 9.736 1.199 0.778-0.006 1.466-0.101 2.123-0.272 0.861 0.153 1.781 0.233 2.701 0.393 0.499 0.095 1.072 0.149 1.658 0.149 1.424 0 2.772-0.321 3.978-0.893 4.57-2.41 8.353-5.891 11.074-10.12 0.909-1.334 1.756-2.398 2.671-3.399 1.708-0.932 3.766-1.869 5.898-2.653 6.621-2.563 15.041-5.883 19.701-15.103 2.406-3.149 4.215-6.891 5.18-10.96 0.423-1.734 0.91-3.066 1.516-4.329 0.406-0.313 0.821-0.797 1.184-1.32 0.475-0.699 0.861-1.466 1.14-2.283 1.55-4.376 2.891-9.551 3.799-14.874 3.081-16.014 4.981-22.914 18.961-24.154 2.152-0.206 4.652-0.323 7.18-0.323s5.028 0.117 7.496 0.347c9.944 0.556 21.564 1.236 33.004-5.244 1.053-0.602 1.941-1.363 2.666-2.262 0.85-0.371 1.915-0.739 3.004-1.047 5.032-1.141 9.192-3.506 12.449-6.77 2-1.8 3.9-3.7 5.78-5.6l2.42-2.4 0.46-0.48 0.26-0.24c2.44-2.48 4.9-4.94 7.44-7.34l0.26-0.28c1.191-0.823 2.596-1.684 4.047-2.474 3.006-1.61 5.354-3.127 7.573-4.807 2.581-1.899 5.521-2.639 11.241-0.059 1.062 1.638 2.395 3.004 3.951 4.068 6.929 10.912 18.149 10.392 25.069 10.032 3.060-0.14 6.24 0 8.76-1.72 3.516-2.128 7.577-3.891 11.878-5.079 6.322-1.8 11.532-4.069 16.362-6.915 0.169-0.137 0.594-0.459 0.989-0.814 1.491-0.932 2.991-1.992 4.491-2.932 10.9-7.26 15.020-9.2 22.24-3.82 3.575 2.564 7.916 4.287 12.622 4.79 1.896 0.090 3.539 0.599 4.967 1.437 0.412 0.52 0.924 1.001 1.486 1.416 1.704 1.757 3.404 3.457 5.104 5.157l1.24 1.24c0.182 0.216 0.365 0.412 0.558 0.598l2.322 2.282c1.78 1.76 3.54 3.52 5.42 5.18v0c3.41 3.567 7.835 6.137 12.811 7.248 1.542 0.406 2.68 0.802 3.783 1.264 0.591 0.823 1.542 1.55 2.614 2.065 9.033 4.543 16.293 5.383 22.313 2.663 8.2-3.74 10.44-12.42 12-18.78 0.527-2.575 1.322-4.856 2.375-6.987 1.077-1.359 1.77-3.288 1.77-5.379 0-0.097-0.001-0.193-0.004-0.289l-0.22-7.406c2.48-10.8 9.76-13.4 23.18-17.3 3.32-0.96 6.64-2 9.82-3.1 2.362-0.336 4.389-1.562 5.765-3.321 5.095-6.309 9.558-13.442 13.11-21.085 0.608-1.397 0.861-2.281 0.98-3.207 0.582-4.131 1.449-7.77 2.613-11.273 0.091 0.326 0.291 0.146 0.531 0.046 3.025-1.118 6.519-1.764 10.164-1.764 0.963 0 1.916 0.045 2.856 0.133 1.616 0.032 3.111 1.024 3.868 2.466 1.458 2.671 4.089 4.513 7.172 4.842 1.635 0.121 3.495 0.187 5.371 0.187s3.735-0.067 5.577-0.198l2.333 0.014c4.768 2.39 8.818 5.495 12.188 9.225 0.405 2.012 1.368 3.718 2.728 5.012 0.864 0.916 1.655 1.916 2.353 2.981 2.791 10.082 8.971 18.242 14.531 25.382 7.4 9.52 12 16.34 11.7 25.020-1.5 3.050-3.246 5.678-5.282 8.050-1.315 1.553-2.141 3.645-2.141 5.929 0 0.085 0.001 0.169 0.003 0.253l0.42 16.468c0.115 4.2 3.004 7.695 6.895 8.725 0.336 0.068 0.578 0.165 0.794 0.3 0.518 2.149 1.551 4.012 2.958 5.522 2.508 2.482 4.567 5.425 6.040 8.69 1.474 5.183 2.927 9.297 4.606 13.293 0.108 0.77 0.488 2.25 0.868 3.81 0.92 3.8 1.84 7.6 3 11.3 0.411 1.397 1.099 2.604 2.007 3.608l7.853 8.332c1.309 1.392 3.037 2.376 4.982 2.751l0.618 0.129c1.089 4.171 4.823 7.2 9.264 7.2 0.020 0 0.039 0 0.059 0l8.337-0.26c2.328-0.081 4.425-1.010 6.005-2.485l7.695-7.175c1.716-1.596 2.822-3.828 2.939-6.319l0.361-7.421c1.363-1.919 3.171-3.439 5.278-4.425 14.822 2.325 15.802 9.525 16.682 26.165 0 0.96 0.14 2 0.18 2.96 0.008 3.125 0.226 6.191 0.64 9.195 0.16 1.545 0.4 3.445 0.44 5.265 0.038 1.93 0.661 3.707 1.699 5.169 1.699 2.483 3.208 5.359 4.366 8.408 0.655 2.284 1.235 4.284 1.715 6.284 0.88 3.58 1.84 7.32 3.14 11.040l0.24 1.080c1.552 8.171 3.579 15.296 6.16 22.149 1.078 2.543 4.392 4.937 8.267 4.937 0.124 0 0.248-0.002 0.371-0.007l1.462 0.001c3.24-0.12 6.76-0.18 10 0 4.471 2.677 8.343 5.537 11.915 8.726-0.057 0.354-0.046 0.846-0.046 1.341 0 1.62-0.112 3.213-0.329 4.773-0.029 0.18-0.058 0.597-0.058 1.020 0 5.114 4.146 9.26 9.26 9.26 0.006 0 0.013 0 0.019 0h-0.001c6.5 0 6.94 1.080 7.58 2.56 1.442 3.354 4.717 5.66 8.532 5.66 0.003 0 0.006 0 0.009 0v0l24.56-0.28c3.336-0.040 6.243-1.842 7.837-4.518l0.303-0.482h0.48l0.22 0.34c1.621 2.642 4.469 4.394 7.731 4.46 7.189 0.14 8.009 1.74 8.749 3.3 1.532 3.072 4.64 5.151 8.236 5.18 6.344 0 7.004 1.48 7.684 2.9 0.476 0.995 1.079 1.847 1.801 2.581 3.599 3.639 7.119 7.359 10.639 11.079 7.907 8.611 16.111 16.556 24.76 24 14 14.72 25.96 29.36 30.58 47.7-0.118 4.786-0.5 9.357-1.133 13.848-0.74 4.442-1.204 10.288-1.204 16.243 0 1.459 0.028 2.912 0.083 4.357 0.208 3.107 2.141 5.927 4.903 7.387 1.75 0.904 2.79 2.024 3.090 8.624 0.11 3.499 2.15 6.498 5.087 7.976 1.793 0.884 2.893 1.784 3.233 8.944 0.155 3.537 2.272 6.546 5.284 7.976 1.496 0.684 2.356 1.104 2.476 8.144 0.050 2.862 1.39 5.401 3.462 7.066 0.446 0.424 0.839 0.861 1.198 1.327 1.354 4.282 2.652 9.67 3.633 15.169s0.127 0.978 0.127 1.058c0 3 0 6 0.24 8.94 0.11 1.296 0.475 2.486 1.044 3.549 0.496 0.931 0.956 1.951 1.456 2.991 1.536 6.175 3.42 11.504 5.741 16.59 0.085 1.159 0.272 3.171 0.272 5.226 0 0.874-0.034 1.74-0.1 2.597-0.017 0.135-0.030 0.425-0.030 0.717 0 3.311 1.741 6.215 4.358 7.847 1.819 1.123 3.559 2.723 3.759 9.183 0.096 2.784 1.401 5.245 3.404 6.887 0.844 0.661 1.581 1.316 2.276 2.012 0.203 1.455 0.319 3.135 0.319 4.842 0 0.407-0.007 0.813-0.020 1.217-0.773 0.759-1.603 1.506-2.488 2.184-2.276 1.742-3.697 4.401-3.697 7.392 0 1.203 0.23 2.353 0.649 3.408 0.858 2.198 1.978 4.478 2.998 6.738l0.94 2c0 1.66 0.14 3.3 0.22 4.88 0.16 2.88 0.24 5.66 0.2 8.34-0.46 0.44-0.94 0.88-1.52 1.34-2.106 1.711-3.441 4.301-3.441 7.203 0 0.034 0 0.068 0.001 0.102l0.24 30.875c0.023 2.623 1.131 4.983 2.896 6.656 1.693 1.57 3.962 2.531 6.456 2.531 0.129 0 0.258-0.003 0.386-0.008l9.022-0.459 0.86 0.44 0.82 0.44c5.28 2.7 7.080 4 7.58 6.78 0 4 0 8.26-0.1 12.32q0 36.38 0.12 72.74c0.14 60.66 0.28 123.4-0.46 185.060-0.14 10.76 0.28 21.56 0.68 32.36 0.86 23 1.7 44.88-2.54 66.46-0.72-0.16-1.42-0.36-2.14-0.52-25.66-5.72-50.84-14.58-75.3-23.24-17.22-6-35.040-12.4-53-17.6-34.32-10-55.7-26.34-69.32-53.12-16.18-31.82-48.4-48-82-41.34-38.32 7.64-71.84-3.080-105.64-15.72-33.44-12.48-60.94-11.22-86.5 4z" />
<glyph unicode="&#xe917;" glyph-name="plus" d="M546.4 960h-68.8v-477.6h-477.6v-68.8h477.6v-477.6h68.8v477.6h477.6v68.8h-477.6v477.6z" />
<glyph unicode="&#xe918;" glyph-name="right-arrow, chevron-thin-right" horiz-adv-x="480" d="M80.62-47.62l388.8 466.38c6.592 7.848 10.596 18.061 10.596 29.21s-4.004 21.362-10.653 29.28l-388.743 466.37c-8.399 9.587-20.666 15.608-34.339 15.608-25.173 0-45.58-20.407-45.58-45.58 0-10.775 3.739-20.676 9.989-28.478l364.41-437.17-364.52-437.22c-6.084-7.679-9.76-17.507-9.76-28.193 0-25.184 20.416-45.6 45.6-45.6 13.575 0 25.765 5.932 34.119 15.346z" />
<glyph unicode="&#xe919;" glyph-name="right-quote" d="M224.156 847.61c-131.322 0-224.156-83.768-224.156-201.503 0-110.942 88.289-201.578 194.71-201.578 38.512 0 81.396 13.587 108.694 38.487 29.446 22.628 31.769 24.901 40.76 24.901 11.314 0 18.082-11.314 18.082-31.769 0-129.049-92.809-267.164-246.784-375.858l40.76-52.049c201.503 124.503 305.627 294.338 305.627 491.295 0 194.885-88.289 308.049-237.718 308.049zM778.889 847.61c-131.347 0-224.181-83.768-224.181-201.503 0-110.942 86.041-201.503 194.735-201.503 38.462 0 81.396 13.587 108.694 38.487 29.396 22.628 31.769 24.901 38.462 24.901 13.587 0 20.38-13.587 20.38-31.769 0-129.049-92.809-269.437-249.057-375.858l40.735-52.049c203.801 126.851 307.949 294.388 307.949 491.37 0 194.735-88.289 307.924-237.718 307.924z" />
<glyph unicode="&#xe91a;" horiz-adv-x="5542" d="M35.721 520.524c-17.319-3.247-34.638-2.165-34.638-14.072-1.082-7.577 7.577-9.742 11.907-9.742 34.638 0 67.112 3.247 99.586 3.247 25.979 0 54.123-3.247 80.101-3.247 3.247 0 18.402-1.082 18.402 9.742s-15.154 10.825-28.144 14.072c-49.793 9.742-49.793 16.237-49.793 51.958v124.482c0 14.072 0 19.484 21.649 19.484 17.319 0 34.638-7.577 45.463-21.649l104.998-187.264c3.247-6.495 6.495-6.495 64.947-6.495 22.732 0 34.638-1.082 64.947-1.082 0 0 1.082 0 1.082 0 3.247 0 6.495 3.247 5.412 6.495 0 7.577-14.072 8.66-33.556 12.989-27.061 5.412-50.875 22.732-63.865 46.545l-84.431 140.719c-3.247 5.412-5.412 8.66-5.412 11.907 0 10.825 77.937 37.886 77.937 111.493 0 89.844-72.524 111.493-132.059 111.493-32.474 0-64.947-3.247-97.421-3.247-21.649 0-76.854 3.247-83.349 3.247s-16.237-1.082-16.237-11.907c0-9.742 17.319-10.825 24.896-11.907 24.896-1.082 42.216-4.33 42.216-19.484l1.082-345.302c-1.082-24.896-18.402-29.226-35.721-32.474zM132.059 898.3c0 1.082 0 2.165 0 3.247 2.165 10.825 11.907 19.484 23.814 17.319 58.452 0 112.575-17.319 112.575-88.761 0-90.926-55.205-96.338-96.338-96.338-33.556 0-40.051 2.165-40.051 8.66v155.873z" />
<glyph unicode="&#xe91b;" horiz-adv-x="5542" d="M612.668 485.886c175.357 0 243.552 133.142 243.552 235.975 0 98.503-71.442 230.562-240.304 230.562v0c-137.471 0-238.14-102.833-238.14-232.727 0-138.554 100.668-233.81 234.892-233.81zM612.668 930.774c113.658 0 166.698-104.998 166.698-198.089 0-36.803-6.495-225.15-164.533-225.15v0c-58.452 0-162.368 44.381-162.368 209.996 1.082 152.626 83.349 213.243 160.203 213.243z" />
<glyph unicode="&#xe91c;" horiz-adv-x="5542" d="M928.744 495.628c22.732-5.412 46.545-8.66 69.277-10.825 86.596 0 153.708 41.133 153.708 134.224 0 149.378-215.408 136.389-215.408 240.304 0 35.721 21.649 67.112 77.937 67.112 97.421 0 73.607-90.926 97.421-90.926 0 0 0 0 0 0 3.247 0 6.495 2.165 6.495 5.412v59.535c0 27.061 0 35.721-55.205 46.545-12.989 2.165-25.979 3.247-38.968 3.247-90.926 0-135.307-60.617-135.307-121.235 0-138.554 215.408-132.059 215.408-241.387 0-35.721-27.061-77.937-95.256-77.937-38.968-1.082-74.689 20.567-92.008 55.205-21.649 40.051-5.412 60.617-24.896 60.617-14.072 0-16.237-43.298-16.237-62.782 1.082-44.381 8.66-57.37 53.040-67.112z" />
<glyph unicode="&#xe91d;" horiz-adv-x="5542" d="M1236.161 495.628c22.732-5.412 46.545-8.66 69.277-10.825 86.596 0 153.708 41.133 153.708 134.224 0 149.378-215.408 136.389-215.408 240.304 0 35.721 21.649 67.112 77.937 67.112 97.421 0 73.607-90.926 97.421-90.926 0 0 0 0 0 0 3.247 0 6.495 2.165 6.495 5.412v59.535c0 27.061 0 35.721-55.205 46.545-12.989 2.165-25.979 3.247-38.968 3.247-90.926 0-135.307-60.617-135.307-121.235 0-138.554 215.408-132.059 215.408-241.387 0-35.721-27.061-77.937-95.256-77.937-38.968-1.082-74.689 20.567-92.008 55.205-21.649 40.051-5.412 60.617-24.896 60.617-14.072 0-16.237-43.298-16.237-62.782 1.082-44.381 8.66-57.37 53.040-67.112z" />
<glyph unicode="&#xe91e;" horiz-adv-x="5542" d="M1694.038 917.784c27.061-1.082 30.309-14.072 30.309-50.875 0-62.782-3.247-126.647-3.247-212.161 0-107.163 19.484-169.945 160.203-169.945 159.121 0 191.594 63.865 191.594 181.852v212.161c0 33.556 15.154 35.721 41.133 40.051 14.072 2.165 23.814 0 23.814 11.907 0 6.495-4.33 11.907-14.072 11.907-20.567 0-43.298-3.247-62.782-3.247s-41.133 3.247-61.7 3.247c-8.66 0-15.154-3.247-15.154-9.742 0-14.072 12.989-11.907 23.814-14.072 27.061-5.412 34.638-6.495 34.638-40.051l1.082-208.913c0-111.493-36.803-159.121-136.389-159.121-94.173 0-125.564 43.298-125.564 132.059 0 40.051 0 224.068 7.577 256.541 3.247 14.072 18.402 18.402 30.309 19.484 22.732 0 31.391 0 31.391 11.907 0 7.577-14.072 10.825-18.402 10.825-34.638 0-49.793-3.247-80.101-3.247s-53.040 3.247-83.349 3.247c-11.907 0-16.237-5.412-16.237-14.072 2.165-8.66 18.402-8.66 41.133-9.742z" />
<glyph unicode="&#xe91f;" horiz-adv-x="5542" d="M2223.357 537.844c0-11.907-5.412-18.402-20.567-19.484-48.71-4.33-51.958-5.412-51.958-15.154 0-7.577 7.577-7.577 12.989-7.577 21.649 0 32.474 3.247 92.008 3.247 31.391 0 60.617-3.247 83.349-3.247 7.577 0 14.072 0 14.072 9.742 0 11.907-21.649 10.825-56.288 14.072-17.319 2.165-33.556 5.412-33.556 44.381 0 15.154-1.082 24.896-1.082 43.298l-1.082 232.727c0 10.825 0 14.072 2.165 14.072s4.33-1.082 5.412-3.247l304.169-357.209c8.66-9.742 16.237-20.567 27.061-20.567s11.907 12.989 11.907 27.061v351.797c0 54.123 2.165 67.112 47.628 67.112 14.072 0 24.896 2.165 24.896 11.907s-8.66 11.907-16.237 11.907c-15.154 0-42.216-3.247-62.782-3.247-25.979 0-54.123 3.247-80.101 3.247-8.66 0-21.649-2.165-21.649-11.907s14.072-9.742 23.814-10.825c46.545-3.247 57.37-3.247 57.37-23.814l-1.082-290.097c0-11.907-1.082-19.484-4.33-19.484s-4.33 2.165-5.412 3.247l-281.438 334.478c-6.495 9.742-16.237 16.237-28.144 17.319-8.66 0-18.402-3.247-38.968-3.247-23.814 0-38.968 3.247-49.793 3.247-11.907 0-21.649-5.412-21.649-12.989 0-10.825 8.66-10.825 50.875-14.072 21.649-2.165 31.391-4.33 31.391-53.040 0-5.412-1.082-20.567-1.082-36.803l-11.907-286.85z" />
<glyph unicode="&#xe920;" horiz-adv-x="5542" d="M2718.038 496.71c17.319 0 35.721 3.247 72.524 3.247s51.958-3.247 70.359-3.247c14.072 0 27.061 1.082 27.061 8.66 0 9.742-16.237 9.742-38.968 14.072-12.989 0-23.814 10.825-23.814 24.896v333.395c0 18.402 1.082 40.051 20.567 42.216 33.556 3.247 46.545 1.082 46.545 14.072 0 8.66-16.237 8.66-32.474 8.66-21.649 0-36.803-3.247-64.947-3.247-33.556 0-45.463 3.247-67.112 3.247-8.66 0-19.484 0-19.484-9.742s6.495-9.742 27.061-12.989c20.567-3.247 28.144-7.577 28.144-30.309v-336.643c0-27.061-21.649-30.309-34.638-31.391-32.474-3.247-36.803-3.247-36.803-11.907s7.577-12.989 25.979-12.989z" />
<glyph unicode="&#xe921;" horiz-adv-x="5542" d="M2923.704 918.867c14.072 0 27.061-6.495 34.638-18.402l166.698-405.92c2.165-4.33 4.33-9.742 9.742-9.742 4.33 0 7.577 2.165 8.66 5.412l142.884 355.044c23.814 59.535 28.144 68.195 67.112 73.607 5.412 1.082 5.412 5.412 5.412 10.825 0 0 0 0 0 0 0 6.495-4.33 11.907-10.825 11.907-7.577 0-45.463-3.247-67.112-3.247-27.061 0-49.793 3.247-75.772 3.247-1.082 0-2.165 0-2.165 0-6.495-1.082-10.825-7.577-9.742-14.072 0-4.33 4.33-7.577 9.742-9.742 20.567-5.412 58.452-3.247 58.452-24.896 0-3.247 0-5.412-1.082-8.66l-97.421-268.448c-2.165-5.412-7.577-8.66-12.989-7.577-2.165 0-9.742 9.742-46.545 103.915l-73.607 186.182c1.082 1.082 1.082 3.247 1.082 5.412 0 15.154 16.237 14.072 29.226 14.072s28.144 2.165 28.144 14.072c0 7.577-15.154 9.742-20.567 9.742-22.732 0-46.545-3.247-69.277-3.247-27.061 0-54.123 3.247-81.184 3.247-4.33 0-18.402-2.165-18.402-8.66 0-10.825 11.907-11.907 24.896-14.072z" />
<glyph unicode="&#xe922;" horiz-adv-x="5542" d="M3385.911 495.628c3.247 0 7.577 1.082 20.567 1.082 11.907 1.082 34.638 1.082 73.607 1.082h203.501c9.742 0 14.072 3.247 16.237 15.154l14.072 73.607c1.082 5.412 3.247 7.577 3.247 11.907s-1.082 7.577-7.577 7.577c-11.907 0-7.577-18.402-42.216-58.452-15.154-17.319-31.391-24.896-80.101-24.896-83.349 0-85.514 3.247-85.514 35.721v140.719c0 14.072 5.412 18.402 38.968 18.402 87.679 0 94.173-4.33 100.668-42.216 3.247-20.567 4.33-32.474 15.154-32.474 7.577 0 7.577 5.412 7.577 11.907 0 20.567-3.247 40.051-3.247 70.359 0 33.556 3.247 44.381 3.247 60.617 0 7.577-1.082 14.072-9.742 14.072-18.402 0-1.082-62.782-54.123-62.782h-62.782c-24.896 0-35.721 2.165-35.721 16.237v126.647c0 24.896 4.33 33.556 30.309 33.556 122.317 0 124.482-11.907 136.389-36.803s9.742-32.474 19.484-32.474c3.247 0 5.412 1.082 5.412 4.33v70.359c0 15.154 0 22.732-10.825 22.732-60.617 0-162.368-3.247-184.017-3.247-18.402 0-76.854 3.247-102.833 3.247-10.825 0-20.567-2.165-20.567-8.66 0-8.66 9.742-9.742 31.391-14.072 27.061-5.412 33.556-9.742 33.556-28.144v-338.808c0-30.309-21.649-28.144-38.968-32.474-18.402-4.33-30.309-3.247-30.309-14.072-2.165-9.742 9.742-9.742 15.154-9.742z" />
<glyph unicode="&#xe923;" horiz-adv-x="5542" d="M3751.78 520.524c-17.319-3.247-34.638-2.165-34.638-14.072-1.082-7.577 7.577-9.742 11.907-9.742 34.638 0 67.112 3.247 99.586 3.247 25.979 0 54.123-3.247 80.101-3.247 3.247 0 18.402-1.082 18.402 9.742s-15.154 10.825-28.144 14.072c-49.793 9.742-49.793 16.237-49.793 51.958v124.482c0 14.072 0 19.484 21.649 19.484 17.319 0 34.638-7.577 45.463-21.649l104.998-187.264c3.247-6.495 6.495-6.495 64.947-6.495 22.732 0 34.638-1.082 64.947-1.082 0 0 1.082 0 1.082 0 2.165 0 3.247 1.082 4.33 2.165 6.495-2.165 14.072-4.33 23.814-6.495 22.732-5.412 46.545-8.66 69.277-10.825 86.596 0 153.708 41.133 153.708 134.224 0 149.378-215.408 136.389-215.408 240.304 0 35.721 21.649 67.112 77.937 67.112 97.421 0 73.607-90.926 97.421-90.926 0 0 0 0 0 0 3.247 0 6.495 2.165 6.495 5.412v59.535c0 27.061 0 35.721-55.205 46.545-12.989 2.165-25.979 3.247-38.968 3.247-90.926 0-135.307-60.617-135.307-121.235 0-138.554 215.408-132.059 215.408-241.387 0-35.721-27.061-77.937-95.256-77.937-38.968-1.082-74.689 20.567-92.008 55.205-21.649 40.051-5.412 60.617-23.814 60.617-14.072 0-16.237-43.298-16.237-62.782 0-21.649 2.165-35.721 8.66-45.463-3.247 1.082-7.577 1.082-11.907 2.165-27.061 5.412-50.875 22.732-63.865 46.545l-84.431 140.719c-3.247 5.412-5.412 8.66-5.412 11.907 0 10.825 77.937 37.886 77.937 111.493 0 89.844-72.524 111.493-132.059 111.493-32.474 0-64.947-3.247-97.421-3.247-21.649 0-76.854 3.247-83.349 3.247s-16.237-1.082-16.237-11.907c0-9.742 17.319-10.825 24.896-11.907 24.896-2.165 42.216-5.412 42.216-20.567l1.082-345.302c-2.165-23.814-19.484-28.144-36.803-31.391zM3847.036 898.3c0 1.082 0 2.165 0 3.247 2.165 10.825 11.907 19.484 23.814 17.319 58.452 0 112.575-17.319 112.575-88.761 0-90.926-55.205-96.338-96.338-96.338-33.556 0-40.051 2.165-40.051 8.66v155.873z" />
<glyph unicode="&#xe924;" horiz-adv-x="5542" d="M4451.044 496.71c17.319 0 35.721 3.247 72.524 3.247s51.958-3.247 70.359-3.247c14.072 0 27.061 1.082 27.061 8.66 0 9.742-16.237 9.742-38.968 14.072-12.989 0-23.814 10.825-23.814 24.896v333.395c0 18.402 1.082 40.051 20.567 42.216 33.556 3.247 46.545 1.082 46.545 14.072 0 8.66-16.237 8.66-32.474 8.66-21.649 0-36.803-3.247-64.947-3.247-33.556 0-45.463 3.247-67.112 3.247-8.66 0-19.484 0-19.484-9.742s6.495-9.742 27.061-12.989c20.567-3.247 28.144-7.577 28.144-30.309v-336.643c0-27.061-21.649-30.309-34.638-31.391-32.474-3.247-36.803-3.247-36.803-11.907s7.577-12.989 25.979-12.989z" />
<glyph unicode="&#xe925;" horiz-adv-x="5542" d="M4637.226 830.106c15.154 0 42.216 71.442 107.163 71.442 58.452 0 63.865-1.082 63.865-31.391v-291.18c0-42.216-7.577-53.040-38.968-59.535-17.319-3.247-41.133-4.33-41.133-16.237 0-7.577 8.66-7.577 11.907-7.577 36.803 0 71.442 3.247 100.668 3.247 31.391 0 71.442-3.247 92.008-3.247 4.33 0 15.154 0 15.154 9.742 0 11.907-18.402 10.825-37.886 14.072-30.309 4.33-41.133 9.742-41.133 44.381v292.262c0 44.381 5.412 46.545 33.556 46.545 71.442 0 99.586-14.072 103.915-20.567 9.742-14.072 7.577-46.545 21.649-46.545s16.237 37.886 16.237 71.442c0 30.309 0 53.040-10.825 53.040-12.989 0-7.577-28.144-32.474-32.474-9.742-1.082-20.567-1.082-30.309-1.082l-159.121-1.082c-35.721 0-70.359 1.082-106.080 5.412-24.896 3.247-11.907 28.144-27.061 28.144-9.742 0-12.989-11.907-20.567-31.391-11.907-29.226-21.649-58.452-29.226-88.761 0 0 0-1.082 0-1.082 1.082-4.33 4.33-8.66 8.66-7.577z" />
<glyph unicode="&#xe926;" horiz-adv-x="5542" d="M5083.197 918.867c14.072-4.33 27.061-12.989 34.638-24.896l126.647-180.77c6.495-8.66 9.742-19.484 9.742-31.391v-111.493c0-43.298-9.742-44.381-32.474-50.875-16.237-4.33-40.051-5.412-40.051-16.237 0-3.247 2.165-6.495 10.825-6.495 33.556 0 68.195 3.247 101.751 3.247 28.144 0 58.452-3.247 86.596-3.247 5.412 0 16.237 0 16.237 9.742s-32.474 10.825-58.452 14.072c-12.989 1.082-21.649 3.247-21.649 41.133v122.317c0 5.412 1.082 11.907 3.247 16.237l167.78 204.584c7.577 7.577 17.319 11.907 28.144 12.989 15.154 4.33 23.814 4.33 23.814 14.072s-9.742 9.742-21.649 9.742c-19.484 0-37.886-3.247-57.37-3.247-23.814 0-47.628 3.247-71.442 3.247-1.082 0-1.082 0-2.165 0-5.412 0-8.66-5.412-8.66-9.742 0-9.742 19.484-10.825 33.556-12.989 10.825-1.082 20.567-2.165 20.567-14.072-1.082-7.577-4.33-14.072-9.742-20.567l-103.915-146.131c-2.165-4.33-6.495-6.495-10.825-7.577-4.33 1.082-7.577 3.247-9.742 6.495l-106.080 158.038c-2.165 3.247-3.247 7.577-3.247 11.907 0 9.742 11.907 11.907 22.732 11.907 18.402 0 32.474 4.33 32.474 14.072 0 0 0 1.082 0 1.082 0 5.412-5.412 8.66-9.742 8.66-30.309 0-60.617-3.247-90.926-3.247-23.814 0-47.628 3.247-71.442 3.247h-10.825c-4.33-1.082-6.495-2.165-6.495-7.577 0-9.742 11.907-11.907 28.144-16.237z" />
<glyph unicode="&#xe927;" horiz-adv-x="5542" d="M0 383.053h5542.156v-16.237h-5542.156v16.237z" />
<glyph unicode="&#xe928;" horiz-adv-x="5542" d="M1110.596 156.82c0 2.165 0 4.33 0 5.412 1.082 19.484 17.319 33.556 35.721 32.474 44.381 0 33.556-51.958 44.381-51.958 0 0 0 0 0 0 2.165 0 3.247 1.082 3.247 3.247l1.082 34.638c0 15.154 0 20.567-24.896 25.979-5.412 1.082-11.907 2.165-18.402 2.165-42.216 0-62.782-34.638-62.782-69.277 0-79.019 98.503-75.772 98.503-138.554 0-1.082 0-2.165 0-4.33-1.082-23.814-20.567-41.133-44.381-41.133-19.484 1.082-35.721 12.989-42.216 31.391-9.742 22.732-4.33 34.638-10.825 34.638s-7.577-24.896-7.577-35.721c0-24.896 3.247-32.474 23.814-37.886 9.742-3.247 20.567-5.412 31.391-6.495 40.051 0 70.359 23.814 70.359 76.854 1.082 86.596-97.421 79.019-97.421 138.554z" />
<glyph unicode="&#xe929;" horiz-adv-x="5542" d="M1407.188 3.112c-3.247 0-6.495-7.577-14.072-19.484-9.742-18.402-29.226-29.226-49.793-28.144-51.958 0-80.101 58.452-80.101 114.74 0 77.937 40.051 126.647 82.266 126.647 44.381 0 48.71-40.051 58.452-40.051 2.165 0 2.165 1.082 2.165 5.412 0 34.638 0 35.721-29.226 42.216-10.825 2.165-21.649 3.247-32.474 4.33v-1.082c-80.101 0-116.905-68.195-116.905-136.389 0-82.266 55.205-129.894 116.905-129.894 30.309 0 57.37 12.989 58.452 19.484 4.33 11.907 6.495 24.896 6.495 37.886 2.165 3.247 2.165 4.33-2.165 4.33z" />
<glyph unicode="&#xe92a;" horiz-adv-x="5542" d="M1648.575 190.376c14.072 2.165 19.484 2.165 19.484 7.577s-6.495 5.412-9.742 5.412c-8.66 0-21.649-2.165-33.556-2.165s-20.567 2.165-31.391 2.165c-4.33 0-9.742 0-9.742-7.577 0-4.33 4.33-5.412 8.66-6.495 17.319-3.247 17.319-5.412 17.319-20.567v-79.019c0-5.412-2.165-5.412-19.484-5.412h-89.844c-7.577 0-8.66 4.33-8.66 14.072l-1.082 74.689c0 11.907 4.33 16.237 11.907 17.319s15.154 0 15.154 7.577c0 4.33-2.165 5.412-9.742 5.412-11.907 0-24.896-2.165-36.803-2.165-9.742 0-19.484 2.165-29.226 2.165-3.247 0-7.577 1.082-7.577-5.412s4.33-6.495 7.577-7.577c18.402-4.33 19.484-4.33 19.484-20.567v-189.429c0-14.072-7.577-16.237-17.319-18.402-5.412-2.165-14.072-4.33-14.072-8.66s6.495-4.33 8.66-4.33c12.989 1.082 25.979 2.165 40.051 2.165 18.402 0 28.144-2.165 34.638-2.165 2.165 0 7.577-1.082 7.577 5.412s-7.577 7.577-10.825 7.577c-11.907 3.247-19.484 5.412-19.484 15.154v83.349c0 7.577 4.33 9.742 28.144 9.742h73.607c14.072 0 16.237-1.082 16.237-10.825v-64.947c0-25.979-3.247-32.474-17.319-33.556-7.577-1.082-15.154-3.247-15.154-7.577s3.247-5.412 6.495-5.412c11.907 1.082 24.896 2.165 36.803 2.165 24.896 0 33.556-2.165 36.803-2.165s9.742-1.082 9.742 5.412c0 6.495-6.495 7.577-15.154 7.577s-14.072 4.33-14.072 15.154v197.006c1.082 11.907 5.412 17.319 11.907 17.319z" />
<glyph unicode="&#xe92b;" horiz-adv-x="5542" d="M1796.871 209.86v0c-63.865 0-110.41-58.452-110.41-133.142 0-79.019 46.545-133.142 108.245-133.142 81.184 0 112.575 75.772 112.575 135.307 1.082 55.205-32.474 130.977-110.41 130.977zM1796.871-44.516v0c-27.061 0-74.689 25.979-74.689 120.152 0 87.679 37.886 121.235 73.607 121.235 53.040 0 76.854-59.535 76.854-112.575 0-20.567-2.165-128.812-75.772-128.812z" />
<glyph unicode="&#xe92c;" horiz-adv-x="5542" d="M2036.093 209.86v0c-63.865 0-110.41-58.452-110.41-133.142 0-79.019 46.545-133.142 108.245-133.142 81.184 0 112.575 75.772 112.575 135.307 0 55.205-32.474 130.977-110.41 130.977zM2036.093-44.516v0c-27.061 0-74.689 25.979-74.689 120.152 0 87.679 37.886 121.235 73.607 121.235 53.040 0 76.854-59.535 76.854-112.575 0-20.567-3.247-128.812-75.772-128.812z" />
<glyph unicode="&#xe92d;" horiz-adv-x="5542" d="M2313.201 6.359c-4.33 0-16.237-33.556-40.051-37.886-11.907-2.165-24.896-3.247-36.803-3.247-8.66 0-12.989 1.082-12.989 14.072v187.264c0 20.567 8.66 23.814 16.237 23.814s16.237-1.082 16.237 5.412c0 6.495-4.33 7.577-10.825 7.577-11.907 0-24.896-2.165-36.803-2.165-15.154 0-27.061 2.165-40.051 2.165-3.247 0-7.577-1.082-7.577-6.495s5.412-7.577 11.907-7.577c14.072-1.082 22.732-3.247 22.732-17.319v-181.852c0-23.814-6.495-25.979-25.979-28.144-3.247 0-7.577-2.165-7.577-6.495s1.082-6.495 8.66-6.495c16.237 0 31.391 2.165 47.628 2.165 49.793 0 70.359-2.165 88.761-2.165 2.165 0 5.412 1.082 6.495 7.577 2.165 14.072 4.33 28.144 5.412 42.216-2.165 3.247-1.082 7.577-5.412 7.577z" />
<glyph unicode="&#xe92e;" horiz-adv-x="5542" d="M2523.197 209.86v0c-63.865 0-110.41-58.452-110.41-133.142 0-79.019 46.545-133.142 108.245-133.142 81.184 0 112.575 75.772 112.575 135.307 0 55.205-32.474 130.977-110.41 130.977zM2523.197-44.516v0c-27.061 0-74.689 25.979-74.689 120.152 0 87.679 37.886 121.235 73.607 121.235 53.040 0 76.854-59.535 76.854-112.575 0-20.567-3.247-128.812-75.772-128.812z" />
<glyph unicode="&#xe92f;" horiz-adv-x="5542" d="M2791.645 204.448c-5.412 0-17.319 0-30.309-1.082s-27.061-1.082-38.968-1.082h-28.144c-9.742 0-17.319 0-24.896 0-11.907 0-16.237-1.082-16.237-5.412 0-7.577 7.577-4.33 19.484-7.577 8.66-3.247 9.742-4.33 9.742-19.484v-173.192c0-27.061-3.247-32.474-10.825-33.556-18.402-3.247-20.567-2.165-20.567-7.577s4.33-5.412 10.825-5.412c9.742 0 23.814 2.165 37.886 2.165 29.226 0 34.638-2.165 41.133-2.165s8.66 2.165 8.66 6.495c0 7.577-7.577 5.412-14.072 7.577-20.567 4.33-23.814 6.495-23.814 23.814v79.019c0 9.742 4.33 10.825 20.567 10.825 33.556 0 36.803-5.412 38.968-16.237 3.247-18.402 4.33-22.732 8.66-22.732 2.165 0 3.247 2.165 3.247 6.495 0 6.495 0 30.309 0 42.216s0 22.732 0 34.638c0 6.495-2.165 7.577-3.247 7.577-10.825 0-2.165-34.638-24.896-37.886-6.495 0-11.907-2.165-18.402-2.165-21.649 0-23.814 1.082-23.814 15.154v70.359c0 12.989 3.247 16.237 21.649 16.237 58.452 0 47.628-11.907 58.452-42.216 1.082-1.082 2.165-2.165 3.247-2.165 3.247 0 3.247 1.082 3.247 4.33l1.082 50.875c-1.082 1.082-5.412 2.165-8.66 2.165z" />
</font>
</defs>
</svg>
