<svg version="1.1" xmlns="http://www.w3.org/2000/svg" xmlns:xlink="http://www.w3.org/1999/xlink" x="0px" y="0px" viewBox="0 0 60 60" style="enable-background:new 0 0 60 60;" xml:space="preserve">
  <style>
  .st0 {opacity: 0.6;fill: #35444C;}
  .st1 {enable-background: new;}
  .st2 {fill: #FFFFFF;}
  </style>
  <path id="bg" class="st0" d="M30,0c16.6,0,30,13.4,30,30S46.6,60,30,60S0,46.6,0,30S13.4,0,30,0z" />
  <g id="play" class="st1">
    <path class="st2" d="M37.2,29.2c0.3,0.2,0.4,0.5,0.4,0.8s-0.1,0.6-0.4,0.8l-9.8,5.8c-0.1,0.1-0.3,0.1-0.4,0.1c-0.2,0-0.4-0.1-0.5-0.2s-0.2-0.3-0.2-0.5V24c0-0.2,0.1-0.4,0.2-0.5s0.3-0.2,0.5-0.2c0.1,0,0.3,0,0.4,0.1L37.2,29.2z" />
  </g>
</svg>
